<svg xmlns="http://www.w3.org/2000/svg" width="1024" height="1024" viewBox="0 0 1024 1024">
<g>
<path d="M 669.55 650.33 C670.23,653.04 672.44,653.17 678.27,650.84 C678.34,650.82 678.41,650.79 678.49,650.76 C676.14,651.73 675.00,653.80 675.00,657.02 C675.00,658.89 675.27,660.23 675.74,660.79 C675.47,660.73 675.27,660.66 675.15,660.59 C674.40,660.13 674.00,660.74 674.00,662.33 C674.00,664.04 673.32,664.95 671.75,665.35 C667.92,666.31 667.50,665.72 667.84,659.76 C668.14,654.34 668.01,653.95 665.51,653.01 C664.31,652.55 663.16,652.16 662.66,652.04 C664.76,644.35 671.71,639.35 680.38,639.07 C678.97,639.23 677.92,639.76 677.64,640.50 C677.32,641.33 676.04,642.01 674.78,642.02 C673.53,642.02 672.00,642.36 671.38,642.77 C669.72,643.86 668.84,647.50 669.55,650.33 ZM 671.00 713.00 C671.00,713.55 671.90,714.00 673.00,714.00 C674.94,714.00 675.00,713.33 675.00,692.50 L 675.00 714.00 L 662.04 714.00 L 661.50 671.50 L 658.50 671.19 C657.26,671.06 656.23,670.70 655.42,670.18 C657.97,671.49 662.99,671.63 663.95,670.08 C665.04,668.31 666.97,669.57 666.53,671.77 C666.34,672.72 665.24,675.67 664.09,678.33 C661.63,684.02 661.39,691.30 663.50,696.35 C664.33,698.32 665.00,702.20 665.00,704.97 C665.00,707.84 665.45,710.00 666.06,710.00 C666.64,710.00 666.84,710.45 666.50,711.00 C666.15,711.57 666.99,712.00 668.44,712.00 C669.85,712.00 671.00,712.45 671.00,713.00 ZM 349.55 713.55 C349.73,713.23 349.38,712.68 348.76,711.75 C347.95,710.51 346.28,708.99 345.06,708.37 C342.00,706.81 341.11,705.79 340.75,703.44 C340.29,700.45 336.31,695.30 332.91,693.29 C329.84,691.48 326.00,686.01 326.00,683.46 C326.00,682.68 324.22,681.13 322.03,680.02 C319.85,678.90 317.58,677.09 316.99,675.98 C316.08,674.29 316.28,673.82 318.21,673.05 C319.47,672.54 320.13,672.10 319.68,672.06 C318.11,671.94 321.78,669.09 324.33,668.45 C325.71,668.11 331.40,662.75 336.64,657.31 C335.78,658.26 334.88,659.24 333.96,660.23 C326.83,667.93 321.00,674.65 321.00,675.19 C321.00,675.72 327.58,684.56 335.62,694.83 L 350.23 713.50 L 349.55 713.55 ZM 606.19 662.46 C609.82,660.88 613.99,660.02 618.57,660.01 C620.37,660.01 622.04,660.08 623.61,660.25 C622.57,660.39 621.98,660.87 622.09,661.75 C622.21,662.71 622.05,664.17 621.74,665.00 C620.03,669.54 620.18,671.00 622.34,671.00 C623.73,671.01 625.35,671.58 626.92,672.52 C624.59,671.47 621.72,671.05 618.28,671.24 C615.55,671.39 613.76,671.65 612.35,672.17 C612.94,671.84 613.49,671.61 613.99,671.50 C616.59,670.93 616.80,670.60 615.97,668.43 C615.47,667.09 615.38,666.00 615.77,666.00 C616.17,665.99 615.03,665.09 613.23,664.00 C611.43,662.90 609.27,662.00 608.43,662.00 C607.75,662.00 606.98,662.17 606.19,662.46 ZM 422.23 687.30 L 422.24 686.96 C422.48,690.10 422.95,693.14 423.60,695.00 C425.05,699.16 424.99,704.25 423.44,708.28 C423.14,709.09 423.58,710.44 424.43,711.29 C425.60,712.46 425.68,712.97 424.74,713.37 C424.06,713.67 425.98,713.81 429.00,713.70 L 434.50 713.50 L 434.78 702.67 C434.98,695.40 434.73,692.05 434.03,692.48 C433.45,692.84 433.00,692.24 433.00,691.12 C433.00,690.02 432.55,688.84 432.00,688.50 C430.85,687.79 430.63,683.94 431.75,684.12 C433.83,684.45 435.00,683.85 435.00,682.45 C435.00,680.96 435.97,678.74 437.24,676.89 C435.68,680.20 435.31,686.00 435.00,696.50 L 434.50 713.50 L 421.97 714.10 ZM 591.07 689.40 C591.02,688.70 591.00,687.98 591.00,687.24 C591.00,676.52 595.87,668.08 603.93,663.58 C602.25,664.63 600.82,666.03 600.44,667.24 C599.73,669.55 593.68,683.09 591.95,686.24 C591.45,687.16 591.16,688.23 591.07,689.40 ZM 475.14 665.70 C480.66,658.13 484.21,653.31 486.73,650.25 C486.16,651.30 486.09,652.24 486.40,653.44 C487.61,658.28 483.35,663.39 477.25,664.41 C476.57,664.52 475.86,664.98 475.14,665.70 ZM 495.92 713.25 C495.88,712.84 495.91,709.47 495.99,705.77 L 496.11 700.33 C497.23,701.35 497.83,703.13 498.96,706.28 C499.52,707.80 500.99,709.46 502.24,709.96 C504.05,710.69 504.14,710.89 502.69,710.94 C501.70,710.97 501.14,711.42 501.45,711.92 C501.77,712.43 501.23,713.06 500.26,713.31 C499.29,713.56 500.86,713.82 503.75,713.88 L 509.00 714.00 L 502.50 714.00 C498.92,714.00 495.97,713.66 495.92,713.25 ZM 372.59 661.13 C366.81,663.07 363.00,666.66 363.00,670.20 C363.00,672.64 362.34,673.35 358.64,674.94 C356.83,675.72 355.58,676.49 354.73,677.62 C357.51,669.16 363.83,663.36 372.59,661.13 ZM 302.58 676.48 C305.35,673.85 311.09,668.11 317.54,661.50 L 320.51 658.46 C319.21,660.16 318.52,661.63 318.03,663.40 C316.96,667.23 313.00,672.85 313.00,670.54 C313.00,670.12 311.82,670.54 310.38,671.49 C308.62,672.64 308.01,672.76 308.52,671.85 C308.95,671.11 307.52,672.19 305.35,674.25 C304.40,675.15 303.47,675.90 302.58,676.48 ZM 529.57 661.75 C530.35,656.06 533.29,651.72 538.62,648.40 C538.46,648.55 538.30,648.70 538.14,648.86 C536.60,650.40 536.00,652.24 536.00,655.39 C536.00,659.59 535.85,659.80 532.60,660.42 C530.84,660.75 529.98,661.01 529.57,661.75 ZM 481.37 677.57 C483.79,674.04 486.00,670.20 486.00,669.15 C486.00,664.77 488.28,661.03 492.41,658.61 C494.10,657.62 495.89,656.03 497.45,654.30 C492.94,661.26 485.87,671.53 481.37,677.57 ZM 640.43 668.34 C644.10,672.12 646.42,676.81 647.41,681.74 L 645.08 680.54 C641.45,678.66 639.65,674.87 640.52,670.92 C640.75,669.84 640.77,669.08 640.43,668.34 ZM 540.57 647.29 C544.69,645.10 547.25,644.52 553.86,644.18 C556.03,644.06 558.26,644.08 560.48,644.22 C559.06,644.47 557.94,645.06 557.01,645.99 C555.25,647.75 554.17,647.90 547.65,647.35 C543.82,647.03 541.89,646.94 540.57,647.29 ZM 460.17 687.00 C461.83,683.98 465.20,679.31 472.03,669.96 C472.30,669.59 472.56,669.23 472.82,668.88 C470.87,672.29 469.27,677.07 469.04,681.16 C469.02,681.52 466.94,682.82 464.43,684.03 C462.54,684.95 461.16,685.88 460.17,687.00 ZM 373.18 672.71 C367.91,676.65 366.50,679.66 366.50,687.00 C366.50,694.67 368.04,697.69 374.09,701.84 C374.65,702.22 375.23,702.55 375.83,702.82 C373.48,701.92 371.36,700.27 369.37,697.86 C368.30,696.56 366.56,695.02 365.52,694.43 C363.10,693.06 362.38,691.00 364.32,691.00 C366.06,691.00 367.22,681.29 365.72,679.28 C364.37,677.48 365.31,675.73 367.84,675.34 C369.07,675.15 371.36,674.06 372.92,672.90 C373.00,672.84 373.09,672.78 373.18,672.71 ZM 575.32 709.13 C576.12,708.16 577.03,706.22 577.38,704.76 C577.74,703.25 578.36,702.12 578.77,702.26 C579.17,702.39 579.50,702.21 579.50,701.85 C579.50,701.50 580.30,700.33 581.28,699.24 C582.71,697.66 582.86,696.75 582.03,694.57 C581.46,693.09 581.00,690.77 581.00,689.42 C581.00,685.41 579.32,682.49 574.72,679.85 C581.13,683.41 583.00,687.58 583.00,694.44 C583.00,700.54 580.17,705.59 575.32,709.13 ZM 701.90 704.71 C700.77,702.12 700.52,698.63 700.37,687.54 C700.26,680.08 700.15,673.56 700.09,672.06 C700.31,672.27 700.48,672.50 700.59,672.75 C701.04,673.71 701.49,681.03 701.60,689.00 C701.71,696.97 701.84,704.03 701.90,704.67 C701.90,704.69 701.90,704.70 701.90,704.71 ZM 698.68 671.19 C697.96,671.07 697.02,671.00 696.00,671.00 L 692.00 671.00 L 692.00 661.11 L 696.25 660.81 C697.81,660.69 698.92,660.48 699.63,660.15 C699.16,660.60 698.46,660.83 697.39,661.02 C694.91,661.47 694.53,661.97 694.69,664.52 C695.07,670.28 695.40,671.00 697.61,671.00 C697.96,671.00 698.33,671.07 698.68,671.19 ZM 630.71 698.35 C633.43,695.06 635.09,690.11 634.62,685.80 C634.35,683.35 633.87,681.22 633.15,679.40 C634.94,682.91 636.96,683.94 637.08,681.25 C637.13,680.18 637.56,680.62 638.20,682.35 C639.06,684.73 638.88,685.65 637.14,687.85 C635.99,689.31 634.18,692.37 633.12,694.67 C632.48,696.04 631.67,697.27 630.71,698.35 ZM 353.07 689.51 C353.22,691.30 353.65,692.00 354.48,692.00 C356.50,692.00 359.19,696.34 358.42,698.36 C358.07,699.26 357.36,700.00 356.84,700.00 C356.49,700.00 356.38,700.23 356.45,700.61 C356.03,699.86 355.65,699.10 355.32,698.38 C353.65,694.75 353.08,692.85 353.07,689.51 ZM 407.79 696.89 C408.28,694.76 408.11,691.86 407.72,684.23 C407.31,676.21 406.88,674.44 404.52,671.03 C403.93,670.18 403.37,669.43 402.81,668.76 C407.02,673.40 409.43,679.68 409.47,687.00 C409.48,690.54 408.89,693.86 407.79,696.89 ZM 300.02 646.35 L 300.21 658.25 C300.27,662.11 300.32,666.00 300.34,669.08 C300.08,666.99 299.53,664.27 298.82,661.83 C298.22,659.82 298.06,656.89 298.45,655.33 C298.84,653.78 299.40,650.81 299.69,648.75 L 300.02 646.35 ZM 564.53 701.86 C568.03,700.14 570.37,696.59 569.64,693.71 C569.56,693.39 569.47,693.09 569.35,692.81 C569.46,692.88 569.60,692.90 569.75,692.88 C573.25,692.33 574.56,697.19 571.25,698.46 C570.29,698.83 569.43,698.99 569.35,698.81 C569.28,698.64 568.38,699.25 567.35,700.17 C566.72,700.74 565.65,701.37 564.53,701.86 ZM 607.17 676.64 C605.24,679.46 604.14,682.97 604.00,686.51 L 604.00 682.77 L 601.55 684.37 C598.42,686.42 597.45,684.96 600.07,682.15 C602.35,679.71 603.61,679.44 604.34,681.25 C604.64,682.01 604.87,681.83 604.92,680.78 C604.97,679.73 605.88,678.18 607.17,676.64 ZM 300.36 672.49 C300.36,673.53 300.36,674.31 300.35,674.75 C300.32,675.93 300.41,676.97 300.57,677.54 C298.52,678.33 296.93,677.97 296.31,676.36 C295.65,674.64 298.62,671.65 300.09,672.55 C300.20,672.62 300.29,672.60 300.36,672.49 ZM 605.09 693.60 C605.18,693.83 605.27,694.06 605.36,694.28 C606.92,697.96 609.73,700.62 613.12,702.06 C611.62,701.71 610.62,701.78 610.13,702.27 C608.47,703.93 605.97,702.29 606.35,699.79 C606.54,698.54 606.09,696.07 605.35,694.29 C605.26,694.08 605.18,693.85 605.09,693.60 ZM 714.00 713.90 C711.50,713.41 709.41,712.63 707.64,711.48 C708.74,711.91 710.16,712.00 712.55,712.00 C715.76,712.00 718.43,712.54 719.18,713.34 C720.12,714.35 721.44,714.46 724.47,713.79 C729.87,712.58 730.27,711.99 728.78,707.42 C728.46,706.46 728.22,705.73 727.96,705.19 C728.54,706.05 728.93,707.34 729.39,709.27 C729.93,711.55 729.65,712.18 727.77,712.88 C723.64,714.41 718.56,714.79 714.00,713.90 ZM 399.58 665.78 C397.51,664.46 395.15,663.97 391.79,663.92 C388.88,663.88 387.06,663.62 387.75,663.34 C389.28,662.72 389.43,661.61 388.62,660.85 C392.81,661.74 396.51,663.43 399.58,665.78 ZM 541.72 661.39 C541.96,661.62 542.00,662.88 541.83,664.18 C541.44,667.02 538.00,666.89 538.00,664.03 C538.00,662.35 540.73,660.40 541.72,661.39 ZM 530.55 672.13 C530.09,670.92 529.72,669.24 529.53,667.43 C529.62,667.71 529.73,667.86 529.85,667.85 C532.60,667.49 534.00,668.25 534.00,670.12 C534.00,671.71 533.53,672.11 532.07,671.73 C530.99,671.44 530.50,671.56 530.55,672.13 ZM 436.12 665.43 L 436.37 665.15 C437.90,663.46 441.23,661.78 444.41,660.86 C443.83,661.19 443.26,661.64 442.66,662.25 C441.36,663.55 440.08,665.26 439.81,666.06 C439.41,667.25 439.05,667.28 437.75,666.20 C436.98,665.56 436.51,665.31 436.12,665.43 ZM 383.99 660.20 C383.42,660.34 383.08,660.53 383.12,660.75 C383.65,664.14 380.85,664.40 378.27,661.19 C377.92,660.76 377.61,660.46 377.22,660.30 C379.28,660.09 381.43,660.04 383.69,660.18 C383.79,660.19 383.89,660.19 383.99,660.20 ZM 686.88 639.71 C687.34,639.81 687.79,639.93 688.25,640.05 C692.33,641.19 692.72,642.29 690.67,647.25 C690.74,646.64 690.55,646.15 690.09,645.69 C689.49,645.09 689.00,643.62 689.00,642.42 C689.00,641.14 688.34,640.25 686.88,639.71 ZM 643.52 702.27 C642.48,703.86 641.25,705.34 639.84,706.70 C637.60,708.84 634.74,710.62 631.58,711.93 C632.47,711.33 633.30,710.58 633.77,709.92 C634.53,708.84 636.80,707.17 638.81,706.22 C640.63,705.36 642.21,704.02 643.52,702.27 ZM 396.20 689.67 C396.37,687.65 396.27,685.56 395.90,683.55 C396.22,684.87 396.68,685.70 397.01,685.49 C397.43,685.23 398.36,685.73 399.07,686.59 C400.14,687.88 400.13,688.30 398.98,689.01 C398.22,689.48 397.24,689.65 396.80,689.38 C396.56,689.23 396.35,689.35 396.20,689.67 ZM 422.33 677.18 L 422.44 666.42 C422.53,666.61 422.65,666.81 422.79,667.03 C424.25,669.38 424.39,674.64 423.00,675.50 C422.71,675.68 422.49,676.28 422.33,677.18 ZM 613.50 714.00 C607.57,712.75 605.84,711.91 600.71,707.54 C603.43,709.80 606.70,711.99 608.19,712.52 C611.37,713.64 622.02,713.99 627.36,713.37 C622.73,714.62 617.82,714.91 613.50,714.00 ZM 506.40 672.73 L 504.56 672.46 C499.09,671.64 496.62,673.46 496.10,679.02 L 496.28 672.00 L 499.52 672.00 C501.29,672.00 504.14,672.28 505.83,672.62 C506.04,672.66 506.22,672.70 506.40,672.73 ZM 700.72 656.34 C700.76,655.26 700.81,654.01 700.85,652.79 L 701.00 648.08 L 707.50 648.29 L 713.99 648.50 L 708.57 648.37 C703.59,648.26 703.05,648.46 702.07,650.87 C701.55,652.16 700.98,654.49 700.72,656.34 ZM 547.50 714.30 C545.66,714.06 543.07,713.39 540.41,712.54 C543.59,713.37 546.64,713.78 548.43,713.45 C550.78,713.01 552.00,713.16 552.00,713.89 C552.00,714.26 552.58,714.58 553.46,714.78 C551.53,714.73 549.54,714.57 547.50,714.30 ZM 521.50 690.71 C521.04,690.06 520.09,689.74 518.30,689.19 C516.21,688.55 513.38,687.91 512.00,687.77 C511.67,687.73 511.38,687.69 511.12,687.64 L 515.50 688.00 L 521.50 688.50 L 521.50 690.71 ZM 422.46 664.43 L 422.50 660.50 L 426.69 660.50 C425.77,660.85 424.96,661.48 424.00,662.50 C423.25,663.30 422.74,663.90 422.46,664.43 ZM 530.49 700.27 C531.45,698.38 532.44,697.00 532.89,697.00 C533.44,697.00 535.37,697.86 537.19,698.91 C537.58,699.14 538.04,699.38 538.55,699.62 C533.66,698.06 531.83,698.17 530.49,700.27 ZM 558.10 714.70 C558.54,714.52 558.65,714.25 558.43,713.89 C557.96,713.12 558.70,713.00 560.88,713.47 C562.75,713.88 565.85,713.44 568.74,712.57 C565.59,713.71 562.01,714.44 558.10,714.70 ZM 479.24 698.80 L 477.32 698.77 L 472.45 698.70 C473.40,698.54 474.00,698.31 474.00,698.00 C474.00,697.45 474.70,697.00 475.56,697.00 C476.42,697.00 476.84,697.45 476.50,698.00 C476.28,698.36 477.23,698.63 479.24,698.80 ZM 327.19 651.62 L 333.65 645.00 L 339.66 645.00 C334.50,645.01 334.15,645.21 327.19,651.62 ZM 462.97 698.56 L 458.50 698.50 L 458.51 697.33 C458.72,697.53 459.01,697.55 459.40,697.40 C460.17,697.11 461.09,697.34 461.46,697.93 C461.62,698.19 462.17,698.40 462.97,698.56 ZM 395.72 682.67 C394.85,678.81 392.95,675.31 390.04,673.23 C393.09,675.19 395.02,678.33 395.70,682.56 C395.71,682.60 395.72,682.63 395.72,682.67 ZM 570.97 645.77 C574.91,646.73 578.14,648.06 579.87,649.58 C579.89,649.60 579.90,649.64 579.90,649.70 C579.21,648.88 575.00,647.05 570.97,645.77 ZM 495.19 686.82 C495.06,686.96 494.91,687.03 494.75,687.04 C489.61,687.18 484.99,687.22 481.60,687.17 C486.74,687.14 493.51,686.99 495.19,686.82 ZM 616.91 703.11 C620.29,703.61 623.94,703.02 627.34,701.19 C624.27,703.08 620.57,703.82 616.91,703.11 ZM 530.13 708.14 L 527.77 706.32 L 529.09 703.32 C527.93,706.31 528.11,706.58 530.13,708.13 ZM 377.00 714.02 C376.11,713.90 375.18,713.72 374.24,713.48 C375.12,713.67 376.03,713.84 377.00,713.98 C383.71,714.98 390.43,713.72 395.93,710.76 C390.59,713.73 384.05,715.01 377.00,714.02 ZM 647.94 686.59 C648.01,689.80 647.54,693.02 646.53,696.07 C647.16,693.95 647.58,691.57 647.77,688.97 L 647.94 686.59 ZM 392.13 699.60 C394.16,697.60 395.44,694.64 395.98,691.38 C395.81,694.41 394.30,697.52 392.13,699.60 ZM 569.00 692.11 C568.28,690.90 567.00,689.89 564.66,688.80 C567.62,690.10 569.00,691.17 569.00,692.11 ZM 688.64 660.91 L 682.47 661.11 C681.21,661.15 679.96,661.14 678.86,661.10 C680.08,661.08 681.57,661.06 683.07,661.02 L 688.64 660.87 L 688.64 660.91 ZM 599.52 706.50 C596.93,704.14 594.95,701.64 593.57,698.88 C595.02,701.57 597.05,704.23 599.52,706.50 ZM 476.00 685.05 C476.01,684.54 476.58,683.54 477.27,682.82 C477.32,682.77 477.37,682.71 477.43,682.65 C476.84,683.49 476.35,684.34 476.00,685.05 ZM 379.88 670.85 C377.65,670.95 375.55,671.40 374.04,672.18 C375.61,671.32 377.41,670.91 379.88,670.85 ZM 359.42 705.19 C360.40,706.30 361.52,707.39 362.59,708.18 C361.89,707.68 361.25,707.16 360.69,706.63 C360.31,706.27 359.88,705.78 359.42,705.19 ZM 448.13 660.15 C448.66,660.11 449.16,660.12 449.60,660.17 C450.13,660.23 450.55,660.28 450.90,660.37 L 448.76 660.19 C448.54,660.17 448.33,660.16 448.13,660.15 ZM 547.77 702.69 C549.41,703.11 551.15,703.56 552.50,703.91 C551.10,703.61 549.51,703.20 547.77,702.69 ZM 335.89 712.63 C337.50,713.37 339.26,713.74 341.47,713.90 C339.32,713.80 337.56,713.42 335.89,712.63 ZM 433.04 661.04 C433.64,661.49 433.77,662.32 434.00,663.86 L 434.14 664.83 C434.10,664.58 434.05,664.30 434.01,664.00 C433.78,662.44 433.57,661.56 433.04,661.04 ZM 689.04 650.08 C688.26,650.64 687.11,650.54 684.62,650.26 C684.24,650.22 683.87,650.18 683.51,650.16 C684.04,650.18 684.56,650.21 685.03,650.28 C687.15,650.56 688.27,650.56 689.04,650.08 ZM 661.29 660.67 C660.86,660.97 660.17,661.00 659.07,661.00 C656.89,661.00 655.17,661.83 654.13,663.08 C655.11,661.86 656.77,661.00 659.07,661.00 C660.17,661.00 660.86,660.96 661.29,660.67 ZM 496.00 682.18 C495.98,683.17 495.93,684.01 495.85,684.69 C495.90,683.98 495.95,683.13 496.00,682.18 ZM 579.03 653.17 C578.87,653.69 578.68,654.24 578.47,654.80 L 576.71 659.70 L 578.36 655.10 C578.60,654.43 578.83,653.78 579.03,653.17 ZM 533.00 675.42 C533.00,674.64 532.58,674.00 532.08,674.00 C531.92,674.00 531.75,673.94 531.60,673.82 C531.77,673.93 531.95,674.00 532.11,674.00 C532.60,674.00 533.00,674.64 533.00,675.42 ZM 501.68 647.24 C501.70,647.09 501.70,646.96 501.69,646.84 C501.71,646.89 501.72,646.94 501.73,647.00 C501.74,647.04 501.72,647.12 501.68,647.24 ZM 558.49 673.89 C558.11,673.78 557.72,673.68 557.33,673.57 C556.84,673.43 556.36,673.30 555.90,673.17 C556.79,673.41 557.65,673.65 558.49,673.89 ZM 653.14 666.83 C653.22,667.27 653.36,667.72 653.57,668.16 C653.36,667.73 653.22,667.29 653.14,666.83 ZM 493.42 645.14 C493.10,645.18 492.81,645.24 492.53,645.31 C492.68,645.27 492.83,645.23 492.98,645.20 C493.12,645.18 493.27,645.16 493.42,645.14 Z" fill="rgba(37,48,55,1)"/>
<path d="M 343.00 712.50 C343.00,713.30 343.60,713.97 344.34,714.00 C338.50,713.96 335.51,713.20 331.99,709.88 C333.34,709.08 337.00,704.54 337.00,703.52 C337.00,698.19 331.80,694.26 328.43,697.06 C325.33,699.63 325.00,701.23 327.36,704.66 C324.22,700.71 319.17,694.63 316.14,691.13 L 313.04 687.55 L 313.44 687.94 C315.41,689.85 317.76,691.03 319.97,691.21 C323.24,691.49 323.41,691.34 323.34,688.33 C323.23,683.25 322.34,682.08 318.07,681.39 C314.92,680.89 313.79,680.14 312.79,677.88 C312.08,676.29 311.06,674.94 310.51,674.87 C306.01,674.30 304.86,674.47 303.76,675.89 C302.62,677.35 302.68,677.36 304.50,676.00 C306.35,674.61 306.40,674.63 305.13,676.25 C304.37,677.21 303.17,678.00 302.47,678.00 C301.69,678.00 301.28,678.98 301.45,680.45 C301.66,682.38 301.08,683.12 298.76,683.93 C295.01,685.24 292.85,684.14 289.52,679.24 L 287.00 675.54 L 287.00 684.88 C287.00,693.35 287.17,694.19 288.78,693.77 C290.63,693.28 291.64,694.10 293.75,697.79 C297.21,703.84 293.08,709.93 288.57,705.43 C287.95,704.81 287.57,704.50 287.34,704.65 C286.85,693.74 286.78,674.24 287.12,660.77 C287.34,662.63 287.91,662.55 289.48,662.25 C291.25,661.91 292.59,662.49 294.20,664.31 C297.03,667.47 298.46,666.78 296.58,663.16 C293.89,657.96 293.67,653.69 295.93,650.82 C299.03,646.87 298.64,645.03 294.69,645.00 C294.73,645.00 294.77,645.00 294.81,645.00 L 300.21 645.00 L 299.69 648.75 C299.40,650.81 298.84,653.78 298.45,655.33 C298.06,656.89 298.22,659.82 298.82,661.83 C300.31,666.89 301.05,673.15 300.09,672.55 C298.62,671.65 295.65,674.64 296.31,676.36 C297.36,679.10 301.20,678.21 305.35,674.25 C307.52,672.19 308.95,671.11 308.52,671.85 C308.01,672.76 308.62,672.64 310.38,671.49 C311.82,670.54 313.00,670.12 313.00,670.54 C313.00,672.85 316.96,667.23 318.03,663.40 C318.76,660.77 319.92,658.82 322.86,655.78 C320.66,658.47 319.42,663.04 320.36,665.49 C320.71,666.42 322.22,667.00 324.27,667.00 C325.33,667.00 326.52,666.63 327.67,666.02 C326.08,667.40 324.88,668.32 324.33,668.45 C321.78,669.09 318.11,671.94 319.68,672.06 C320.13,672.10 319.47,672.54 318.21,673.05 C316.28,673.82 316.08,674.29 316.99,675.98 C317.58,677.09 319.85,678.90 322.03,680.02 C324.22,681.13 326.00,682.68 326.00,683.46 C326.00,686.01 329.84,691.48 332.91,693.29 C336.31,695.30 340.29,700.45 340.75,703.44 C341.11,705.79 342.00,706.81 345.06,708.37 C346.28,708.99 347.95,710.51 348.76,711.75 C350.24,713.99 350.22,714.00 344.77,714.00 C344.66,714.00 344.55,714.00 344.44,714.00 C345.19,713.97 346.05,713.31 346.36,712.50 C346.75,711.48 346.31,711.00 344.97,711.00 C343.89,711.00 343.00,711.67 343.00,712.50 ZM 565.58 689.14 C565.62,689.19 565.66,689.24 565.70,689.28 C562.96,687.96 558.42,686.39 551.84,684.46 C548.01,683.33 544.78,682.29 542.15,681.32 C543.16,681.33 544.23,680.90 546.23,680.01 C548.86,678.83 550.74,677.13 551.55,675.22 C552.77,672.31 552.73,672.24 549.03,671.13 C541.48,668.87 536.30,670.76 535.76,675.99 C535.60,677.49 535.97,678.37 537.33,679.30 C534.41,677.86 533.00,676.59 533.00,675.42 C533.00,674.64 532.60,674.00 532.11,674.00 C531.62,674.00 530.97,673.38 530.68,672.61 C530.31,671.64 530.72,671.38 532.07,671.73 C533.53,672.11 534.00,671.71 534.00,670.12 C534.00,668.25 532.60,667.49 529.85,667.85 C529.49,667.90 529.20,666.39 529.20,664.49 C529.20,661.37 529.52,660.99 532.60,660.42 C535.85,659.80 536.00,659.59 536.00,655.39 C536.00,652.24 536.60,650.40 538.14,648.86 C540.06,646.94 540.99,646.79 547.65,647.35 C554.17,647.90 555.25,647.75 557.01,645.99 C557.94,645.06 559.06,644.48 560.48,644.22 L 560.32 647.47 C560.10,651.77 558.58,653.94 555.63,654.16 C554.46,654.24 555.75,654.62 558.50,655.00 C561.25,655.38 563.84,655.76 564.26,655.84 C564.68,655.93 566.36,654.80 568.01,653.33 C572.99,648.90 571.77,645.34 564.95,644.41 L 562.45 644.07 C564.10,644.09 566.08,644.42 568.50,645.05 C573.44,646.33 580.00,649.10 580.00,649.90 C580.01,650.23 579.27,652.57 578.36,655.10 L 576.71 659.70 L 569.11 657.26 C555.04,652.76 543.87,655.35 543.20,663.26 C542.76,668.39 545.42,670.33 557.33,673.57 C560.91,674.54 563.99,675.46 566.64,676.37 C565.76,676.27 565.30,676.51 564.97,677.05 C564.53,677.76 562.70,678.83 560.90,679.42 C558.66,680.16 557.41,681.34 556.93,683.15 C556.27,685.62 556.53,685.89 560.64,687.04 C563.07,687.72 565.29,688.66 565.58,689.14 ZM 671.00 713.00 C671.00,712.45 669.85,712.00 668.44,712.00 C666.99,712.00 666.15,711.57 666.50,711.00 C666.84,710.45 666.64,710.00 666.06,710.00 C665.45,710.00 665.00,707.84 665.00,704.97 C665.00,702.20 664.33,698.32 663.50,696.35 C661.39,691.30 661.63,684.02 664.09,678.33 C665.24,675.67 666.34,672.72 666.53,671.77 C666.97,669.57 665.04,668.31 663.95,670.08 C663.62,670.61 662.82,670.94 661.80,671.10 C661.93,670.76 661.60,670.11 661.00,668.99 C660.01,667.16 660.18,666.44 662.04,664.46 C663.54,662.86 664.01,661.52 663.51,660.30 C663.01,659.09 662.61,658.91 662.30,659.75 C662.20,660.02 661.92,660.26 661.51,660.47 C661.96,659.91 662.00,658.79 662.00,656.50 C662.00,654.03 662.20,652.00 662.43,652.00 C662.67,652.00 664.06,652.45 665.51,653.01 C668.01,653.95 668.14,654.34 667.84,659.76 C667.50,665.72 667.92,666.31 671.75,665.35 C673.32,664.95 674.00,664.04 674.00,662.33 C674.00,660.74 674.40,660.13 675.15,660.59 C675.68,660.92 678.03,661.13 680.75,661.13 C679.27,661.24 679.36,661.47 680.65,661.99 C684.49,663.54 684.20,664.87 679.78,666.01 C677.43,666.62 674.71,667.35 673.75,667.63 C671.90,668.16 671.22,673.00 673.00,673.00 C673.55,673.00 674.00,674.38 674.00,676.06 C674.00,677.84 673.58,678.86 673.00,678.50 C672.43,678.15 672.00,679.01 672.00,680.50 C672.00,681.99 672.43,682.85 673.00,682.50 C673.55,682.16 674.09,682.47 674.20,683.19 C674.30,683.91 674.55,681.46 674.74,677.75 L 675.00 672.76 L 675.00 692.50 C675.00,713.33 674.94,714.00 673.00,714.00 C671.90,714.00 671.00,713.55 671.00,713.00 ZM 389.24 701.54 C393.02,699.97 396.00,695.23 396.00,690.82 C396.00,689.75 396.36,689.10 396.80,689.38 C397.24,689.65 398.22,689.48 398.98,689.01 C400.13,688.30 400.14,687.88 399.07,686.59 C398.36,685.73 397.43,685.23 397.01,685.49 C396.60,685.75 396.01,684.43 395.70,682.56 C395.56,681.69 395.37,680.87 395.12,680.09 C396.21,682.33 396.78,682.60 397.79,681.76 C398.57,681.11 400.18,680.10 401.36,679.52 C404.43,677.99 404.71,673.38 401.90,670.40 C399.54,667.89 392.75,666.97 391.50,669.00 C391.16,669.55 390.01,670.00 388.94,670.00 C386.35,670.00 386.52,671.08 389.28,672.78 C387.00,671.53 384.16,670.87 380.81,670.85 C377.20,670.82 374.94,671.40 372.92,672.90 C371.36,674.06 369.07,675.15 367.84,675.34 C365.31,675.73 364.37,677.48 365.72,679.28 C366.65,680.52 366.56,684.68 365.95,687.70 L 365.97 686.20 C365.99,683.89 365.21,682.17 363.35,680.45 C360.39,677.71 356.00,677.14 356.00,679.50 C356.00,680.33 355.33,681.00 354.50,681.00 C353.80,681.00 353.38,681.47 353.17,682.67 C353.60,678.06 354.97,676.51 358.64,674.94 C362.34,673.35 363.00,672.64 363.00,670.20 C363.00,666.63 366.89,662.99 372.77,661.07 C376.52,659.84 377.19,659.85 378.27,661.19 C380.85,664.40 383.65,664.14 383.12,660.75 C383.05,660.34 384.35,660.00 386.00,660.00 C389.05,660.00 390.27,662.32 387.75,663.34 C387.06,663.62 388.88,663.88 391.79,663.92 C397.94,664.01 400.74,665.57 404.52,671.03 C406.88,674.44 407.31,676.21 407.72,684.23 C408.16,692.88 408.32,695.45 407.55,697.71 C407.34,698.33 407.05,698.94 406.68,699.63 C407.77,697.43 407.47,697.18 404.67,695.29 C402.92,694.11 400.83,693.07 400.00,692.96 C396.37,692.49 395.96,692.99 396.23,697.62 C396.56,703.21 394.68,705.04 390.28,703.46 C388.66,702.88 387.07,702.67 385.72,702.80 C386.84,702.48 388.01,702.06 389.24,701.54 ZM 424.74 713.37 C425.68,712.97 425.60,712.46 424.43,711.29 C423.58,710.44 423.14,709.09 423.44,708.28 C424.99,704.25 425.05,699.16 423.60,695.00 C421.85,690.00 421.44,676.47 423.00,675.50 C424.39,674.64 424.25,669.38 422.79,667.03 C421.76,665.38 421.95,664.69 424.00,662.50 C425.89,660.49 427.23,659.97 429.97,660.20 C433.17,660.47 433.55,660.83 434.01,664.00 C434.25,665.66 434.54,666.51 434.88,666.56 C434.45,666.70 433.99,666.20 433.83,665.36 C433.57,664.04 433.25,664.20 432.34,666.09 C430.56,669.79 429.66,672.42 429.87,673.34 C429.97,673.80 429.20,674.40 428.15,674.67 C424.95,675.51 423.64,679.29 424.38,685.59 C424.75,688.71 425.31,691.69 425.62,692.20 C426.85,694.18 427.44,691.63 427.16,685.54 C426.90,679.66 428.00,676.57 429.49,678.99 C430.50,680.62 433.65,678.40 435.46,674.79 C437.00,671.70 436.74,665.90 435.18,666.41 C435.24,666.36 435.29,666.29 435.35,666.20 C436.03,665.14 436.46,665.14 437.75,666.20 C439.05,667.28 439.41,667.25 439.81,666.06 C440.08,665.26 441.36,663.55 442.66,662.25 C443.41,661.50 444.10,660.97 444.85,660.64 L 445.15 664.43 C445.35,666.95 445.28,669.00 445.00,669.00 C444.71,669.00 443.99,669.79 443.38,670.76 C442.37,672.39 442.69,672.49 447.39,672.01 L 452.50 671.50 L 447.50 672.04 C444.75,672.33 441.49,673.13 440.26,673.82 C437.88,675.14 435.00,679.87 435.00,682.45 C435.00,683.85 433.83,684.45 431.75,684.12 C430.63,683.94 430.85,687.79 432.00,688.50 C432.55,688.84 433.00,690.02 433.00,691.12 C433.00,692.24 433.45,692.84 434.03,692.48 C434.73,692.05 434.98,695.40 434.78,702.67 L 434.50 713.50 L 429.00 713.70 C425.98,713.81 424.06,713.67 424.74,713.37 ZM 500.26 713.31 C501.23,713.06 501.77,712.43 501.45,711.92 C501.14,711.42 501.70,710.97 502.69,710.94 C504.14,710.89 504.05,710.69 502.24,709.96 C500.99,709.46 499.52,707.80 498.96,706.28 C497.76,702.96 497.16,701.15 495.91,700.17 C494.35,698.94 491.78,699.00 485.77,699.00 C479.43,699.00 476.10,698.64 476.50,698.00 C476.84,697.45 476.42,697.00 475.56,697.00 C474.70,697.00 474.00,697.45 474.00,698.00 C474.00,698.68 471.01,699.00 467.95,698.98 C469.23,698.91 469.98,698.65 469.68,698.35 C468.78,697.44 474.14,693.00 476.14,693.00 C477.05,693.00 479.23,694.35 481.00,696.00 C483.81,698.63 484.94,699.00 490.07,699.00 C496.54,699.00 498.12,697.65 497.95,692.28 C497.84,688.56 498.57,684.10 499.43,683.23 C499.82,682.85 500.98,683.64 502.00,685.00 C504.15,687.85 504.74,687.56 505.61,683.18 C506.10,680.73 505.90,680.00 504.74,680.00 C503.91,680.00 502.51,678.91 501.64,677.57 C500.12,675.26 500.15,675.12 502.19,674.82 C504.52,674.47 505.32,673.13 504.37,672.43 C504.43,672.44 504.49,672.45 504.56,672.46 L 508.91 673.11 L 509.21 680.30 C509.49,687.15 509.62,687.51 512.00,687.77 C513.38,687.91 516.21,688.55 518.30,689.19 C521.45,690.16 521.98,690.42 521.89,692.99 C521.79,691.16 520.66,691.25 515.75,691.90 C514.49,692.07 514.92,694.77 516.45,696.31 C517.25,697.11 517.59,698.08 517.20,698.48 C517.11,698.57 517.09,698.64 517.12,698.71 L 515.25 698.80 L 509.00 699.10 L 509.00 708.72 C509.00,704.64 508.54,703.05 506.96,701.69 C505.11,700.11 505.06,699.80 506.47,698.39 C507.32,697.54 507.76,696.43 507.45,695.93 C507.14,695.43 505.78,696.21 504.43,697.67 C501.60,700.72 501.90,703.08 505.61,707.05 C509.42,711.13 508.78,712.83 503.25,713.26 L 500.02 713.52 C499.92,713.45 499.99,713.38 500.26,713.31 ZM 719.18 713.34 C718.43,712.54 715.76,712.00 712.55,712.00 C709.03,712.00 707.62,711.81 706.20,710.62 C707.16,711.15 708.21,710.82 710.77,709.93 C714.78,708.53 715.73,706.01 713.06,703.85 C710.62,701.87 710.43,700.43 712.50,699.64 C714.02,699.06 714.69,693.07 713.25,692.92 C712.84,692.88 711.69,692.69 710.69,692.50 C708.17,692.02 706.25,696.98 708.37,698.53 C709.91,699.65 708.99,702.65 707.36,701.81 C706.89,701.57 705.52,702.39 704.33,703.65 L 702.33 705.73 C702.08,705.27 701.92,704.90 701.90,704.67 C701.84,704.03 701.71,696.97 701.60,689.00 C701.49,681.03 701.04,673.71 700.59,672.75 C700.59,672.74 700.58,672.72 700.57,672.71 C700.63,672.64 700.70,672.56 700.77,672.47 C701.83,670.97 704.55,671.35 704.20,672.94 C704.04,673.69 704.15,674.96 704.46,675.76 C704.88,676.86 705.36,676.95 706.35,676.12 C707.09,675.51 707.98,675.31 708.34,675.68 C708.70,676.04 709.00,675.76 709.00,675.05 C709.00,674.22 709.88,673.94 711.50,674.24 C713.44,674.62 714.00,674.31 714.00,672.86 L 714.00 685.31 C714.00,702.67 714.37,703.50 722.17,703.50 C727.48,703.50 727.49,703.51 728.78,707.42 C730.07,711.37 729.95,712.34 726.40,713.32 C727.10,712.66 727.41,711.60 726.91,710.25 C726.04,707.95 723.56,707.36 721.15,708.89 C720.09,709.56 720.04,710.21 720.93,711.87 C721.58,713.07 722.56,713.75 723.56,713.98 C721.16,714.43 720.02,714.25 719.18,713.34 ZM 602.21 675.71 C603.16,676.90 603.99,676.67 609.00,673.84 C609.68,673.46 610.96,672.83 612.10,672.31 C608.93,674.18 605.02,678.56 604.92,680.78 C604.87,681.83 604.64,682.01 604.34,681.25 C603.61,679.44 602.35,679.71 600.07,682.15 C597.45,684.96 598.42,686.42 601.55,684.37 L 604.00 682.77 L 604.00 686.92 C604.00,689.20 604.61,692.52 605.35,694.29 C606.09,696.07 606.54,698.54 606.35,699.79 C605.97,702.29 608.47,703.93 610.13,702.27 C610.79,701.61 612.39,701.71 614.89,702.57 C615.98,702.95 617.09,703.19 618.19,703.30 C617.32,703.26 616.53,703.15 615.93,702.98 C613.44,702.27 613.00,702.42 613.00,703.99 C613.00,705.22 612.03,706.05 610.10,706.48 C607.17,707.12 605.39,710.42 606.95,711.93 C605.13,710.93 602.43,709.02 600.22,707.12 C598.22,705.40 596.49,703.43 595.08,701.37 C596.62,702.02 600.03,701.77 600.67,700.72 C601.07,700.08 600.81,700.00 600.00,700.50 C599.15,701.02 598.93,700.92 599.38,700.20 C599.76,699.59 600.66,699.32 601.39,699.60 C602.29,699.94 602.75,699.19 602.83,697.30 C602.89,695.76 603.17,692.25 603.46,689.50 C603.95,684.70 603.92,684.63 602.74,687.68 C602.06,689.43 600.26,691.92 598.75,693.21 C597.24,694.50 596.00,696.56 596.00,697.78 C596.00,699.00 595.52,700.00 594.94,700.00 C594.65,700.00 594.45,700.10 594.36,700.25 C591.20,695.13 590.08,689.65 591.95,686.24 C593.68,683.09 599.73,669.55 600.44,667.24 C601.15,664.95 605.64,662.00 608.43,662.00 C609.27,662.00 611.43,662.90 613.23,664.00 C615.03,665.09 616.17,665.99 615.77,666.00 C615.38,666.00 615.47,667.09 615.97,668.43 C616.80,670.60 616.59,670.93 613.99,671.50 C613.82,671.54 613.65,671.59 613.47,671.65 C615.13,670.58 614.70,669.00 612.44,669.00 C611.65,669.00 611.00,668.33 611.00,667.50 C611.00,665.35 605.70,665.57 603.68,667.80 C601.67,670.02 600.92,674.08 602.21,675.71 ZM 490.19 655.65 C491.79,657.72 497.36,654.31 500.15,650.78 C498.34,653.64 495.22,656.96 492.41,658.61 C488.28,661.03 486.00,664.77 486.00,669.15 C486.00,670.81 480.45,679.50 477.27,682.82 C476.57,683.55 476.00,684.56 476.00,685.07 C476.00,685.45 475.94,685.93 475.85,686.30 C475.78,686.22 475.75,686.14 475.77,686.04 C475.93,685.39 475.59,685.14 475.02,685.48 C474.46,685.83 474.00,687.26 474.00,688.67 C474.00,690.70 473.65,691.07 472.25,690.49 C471.29,690.10 469.71,689.55 468.75,689.27 C467.79,688.99 467.00,688.37 467.00,687.88 C467.00,687.40 465.25,687.00 463.12,687.00 C461.45,687.00 460.44,687.11 459.77,687.48 C460.78,686.14 462.28,685.07 464.43,684.03 C466.94,682.82 469.02,681.52 469.04,681.16 C469.44,674.09 473.91,664.97 477.25,664.41 C483.35,663.39 487.61,658.28 486.40,653.44 C485.90,651.45 486.39,650.20 488.56,647.93 C490.92,645.48 492.17,645.00 496.22,645.00 C496.42,645.00 496.61,645.00 496.79,645.01 C494.14,645.07 492.62,645.79 490.66,647.84 C487.98,650.63 487.86,652.62 490.19,655.65 ZM 377.00 713.98 C371.47,713.16 367.57,711.63 362.98,708.47 C359.44,706.03 355.06,700.00 356.84,700.00 C357.36,700.00 358.07,699.26 358.42,698.36 C359.19,696.34 356.50,692.00 354.48,692.00 C353.40,692.00 353.00,690.82 353.00,687.62 C353.00,687.27 353.00,686.93 353.00,686.60 C353.04,689.88 353.33,690.03 355.25,689.45 C356.49,689.08 358.50,687.86 359.72,686.74 L 361.94 684.71 L 363.94 687.10 L 365.60 689.10 C365.25,690.24 364.81,691.00 364.32,691.00 C362.38,691.00 363.10,693.06 365.52,694.43 C366.56,695.02 368.30,696.56 369.37,697.86 C373.39,702.73 377.90,704.47 383.86,703.26 C383.08,703.61 382.51,704.14 382.25,704.83 C381.91,705.75 380.81,707.09 379.80,707.82 C378.04,709.09 378.05,709.25 380.23,711.89 C382.28,714.36 382.89,714.56 386.50,713.86 C387.35,713.70 388.22,713.54 389.03,713.41 C385.20,714.36 381.10,714.59 377.00,713.98 ZM 631.22 675.97 C632.48,678.00 632.49,678.00 634.16,675.79 C636.10,673.21 637.11,666.05 635.77,664.30 C635.74,664.27 635.70,664.23 635.67,664.19 C636.38,664.64 637.08,665.11 637.74,665.62 C640.55,667.76 641.02,668.65 640.52,670.92 C639.65,674.87 641.45,678.66 645.08,680.54 L 648.26 682.18 L 647.77 688.97 C647.42,693.80 646.27,697.86 644.42,700.93 C645.23,698.71 645.19,696.00 644.07,696.00 C643.55,696.00 642.86,695.14 642.53,694.09 C641.10,689.59 636.75,690.60 633.96,696.08 C631.56,700.78 631.55,701.08 633.75,700.38 C634.85,700.03 634.44,700.80 632.64,702.46 C630.06,704.83 629.60,704.95 628.12,703.60 C627.08,702.67 626.01,702.40 624.06,702.69 C627.92,701.47 631.27,698.65 633.12,694.67 C634.18,692.37 635.99,689.31 637.14,687.85 C638.88,685.65 639.06,684.73 638.20,682.35 C637.56,680.62 637.13,680.18 637.08,681.25 C636.95,684.10 634.70,682.78 632.84,678.77 C631.69,676.29 629.27,673.88 626.75,672.42 C628.59,673.35 630.55,674.91 631.22,675.97 ZM 566.69 689.79 C567.12,689.92 567.62,690.00 568.12,690.00 C569.22,690.00 569.88,689.61 569.59,689.14 C569.29,688.67 570.85,688.61 573.05,689.01 C575.25,689.41 577.24,689.41 577.49,689.02 C577.74,688.62 577.43,686.76 576.82,684.90 C576.20,683.03 575.58,681.02 575.45,680.42 C575.43,680.36 575.39,680.29 575.33,680.21 C579.47,682.76 581.00,685.59 581.00,689.42 C581.00,690.77 581.46,693.09 582.03,694.57 C582.86,696.75 582.71,697.66 581.28,699.24 C580.30,700.33 579.50,701.50 579.50,701.85 C579.50,702.21 579.17,702.39 578.77,702.26 C578.36,702.12 577.74,703.25 577.38,704.76 C577.02,706.27 576.06,708.27 575.25,709.21 C574.76,709.77 573.97,710.33 573.00,710.86 C574.43,710.04 574.99,709.13 574.97,707.80 C574.90,702.57 570.17,700.30 563.50,702.26 C564.95,701.76 566.53,700.91 567.35,700.17 C568.38,699.25 569.28,698.64 569.35,698.81 C569.43,698.99 570.29,698.83 571.25,698.46 C574.56,697.19 573.25,692.33 569.75,692.88 C569.34,692.95 569.00,692.60 569.00,692.11 C569.00,691.42 568.26,690.66 566.69,689.79 ZM 669.55 650.33 C668.84,647.50 669.72,643.86 671.38,642.77 C672.00,642.36 673.53,642.02 674.78,642.02 C676.04,642.01 677.32,641.33 677.64,640.50 C677.98,639.60 679.48,639.01 681.36,639.01 C681.87,639.02 682.36,639.03 682.82,639.05 C681.66,639.20 681.00,639.71 681.00,640.50 C681.00,641.33 681.62,642.00 682.38,642.00 C683.14,642.00 684.32,641.33 685.00,640.50 C685.47,639.94 685.69,639.58 685.59,639.35 C687.95,639.82 689.00,640.81 689.00,642.42 C689.00,643.62 689.49,645.09 690.09,645.69 C690.88,646.48 690.88,647.35 690.11,648.80 C689.67,649.62 689.24,650.09 688.52,650.32 L 684.96 648.64 C682.58,647.52 681.00,646.08 681.00,645.04 C681.00,643.51 680.58,643.43 677.50,644.39 C673.57,645.62 672.85,648.19 676.04,649.60 C676.76,649.91 678.39,650.20 680.25,650.36 C679.48,650.47 678.79,650.64 678.27,650.84 C672.44,653.17 670.23,653.04 669.55,650.33 ZM 472.62 676.88 C473.32,680.37 474.71,680.72 479.02,678.49 C482.40,676.74 484.03,674.18 483.51,671.43 C483.32,670.37 483.12,668.71 483.08,667.75 C482.94,664.68 477.58,665.52 474.59,669.08 C473.17,670.76 472.46,671.60 472.21,672.57 C471.95,673.54 472.18,674.64 472.62,676.88 ZM 336.50 649.00 C338.35,651.05 340.93,650.93 344.41,648.65 C344.44,648.63 344.48,648.61 344.51,648.58 C341.94,651.78 337.11,656.95 332.78,661.22 C333.31,660.27 333.57,659.33 333.44,658.53 C333.07,656.30 330.15,653.79 328.85,654.59 C328.38,654.88 328.00,654.59 328.00,653.94 C328.00,653.10 327.50,653.16 326.31,654.13 C324.85,655.31 324.73,655.29 325.47,654.00 C325.89,653.26 325.28,653.51 324.10,654.54 C324.89,653.76 325.80,652.90 326.83,651.95 C334.31,645.06 334.42,645.00 340.02,645.00 C340.09,645.00 340.16,645.00 340.23,645.00 C334.69,645.02 333.79,646.01 336.50,649.00 ZM 552.00 713.89 C552.00,713.16 550.78,713.01 548.43,713.45 C547.71,713.58 546.79,713.60 545.74,713.51 C546.01,713.29 546.19,712.95 546.36,712.50 C546.74,711.51 548.31,711.00 550.97,711.00 C555.60,711.00 556.70,708.46 552.52,707.42 C550.45,706.90 550.21,706.48 551.06,704.90 C551.34,704.36 551.51,703.97 551.53,703.69 C555.12,704.54 557.63,704.74 558.37,704.16 C558.99,703.68 560.85,702.95 562.50,702.56 C562.60,702.54 562.71,702.51 562.82,702.48 C559.61,703.57 559.60,704.97 562.31,711.29 C562.84,712.55 563.37,713.29 564.30,713.52 C562.98,713.67 561.78,713.67 560.88,713.47 C558.70,713.00 557.96,713.12 558.43,713.89 C558.89,714.62 557.91,715.00 555.56,715.00 C553.60,715.00 552.00,714.50 552.00,713.89 ZM 368.67 671.39 C370.62,673.35 371.61,673.74 372.58,672.94 C373.29,672.34 375.10,671.53 376.60,671.13 L 379.33 670.40 L 376.34 667.05 C373.88,664.30 372.87,663.82 370.70,664.36 C366.40,665.44 365.57,668.30 368.67,671.39 ZM 669.52 699.28 L 670.25 701.50 L 670.69 699.27 C670.94,698.04 670.43,696.02 669.57,694.79 C667.57,691.95 667.54,685.63 669.50,684.00 C670.33,683.32 671.00,681.81 671.00,680.66 C671.00,678.57 670.99,678.58 669.44,680.78 C668.59,682.00 667.27,683.00 666.52,683.00 C663.16,683.00 663.53,695.40 666.93,696.48 C667.95,696.80 669.11,698.06 669.52,699.28 ZM 540.92 655.92 C542.89,657.89 543.74,657.97 547.82,656.60 C549.88,655.91 549.98,655.63 548.73,654.16 C547.94,653.25 547.02,651.71 546.68,650.75 C545.98,648.77 543.80,648.50 540.93,650.04 C538.48,651.35 538.47,653.47 540.92,655.92 ZM 699.95 671.92 C699.33,671.37 698.43,671.00 697.61,671.00 C695.40,671.00 695.07,670.28 694.69,664.52 C694.53,661.97 694.91,661.47 697.39,661.02 C699.82,660.58 700.33,659.95 700.64,657.00 C700.84,655.08 701.48,652.32 702.07,650.87 C703.03,648.51 703.57,648.26 708.27,648.37 C705.38,648.32 703.28,648.64 703.56,649.10 C704.18,650.11 702.08,657.93 700.70,659.75 C700.18,660.44 698.91,661.00 697.88,661.00 C694.68,661.00 695.59,664.66 699.09,665.88 C701.70,666.79 701.97,667.17 700.82,668.32 C700.08,669.07 698.80,669.94 697.98,670.26 C696.81,670.72 696.87,670.86 698.25,670.92 C699.06,670.96 699.74,671.38 699.95,671.92 ZM 714.00 650.97 L 714.00 654.75 L 714.00 661.00 L 719.90 661.00 C716.59,661.17 713.18,661.68 712.61,662.40 C712.00,663.17 710.49,664.10 709.25,664.47 C707.49,664.99 707.00,664.73 707.00,663.29 C707.00,661.26 709.39,657.40 712.19,654.88 C713.17,654.01 713.96,652.27 714.00,650.97 ZM 625.26 671.68 C624.24,671.25 623.24,671.01 622.34,671.00 C620.18,671.00 620.03,669.54 621.74,665.00 C622.05,664.17 622.21,662.71 622.09,661.75 C621.79,659.29 627.00,659.94 632.28,662.37 C629.07,661.06 624.81,659.86 624.27,660.40 C623.94,660.73 624.39,661.00 625.27,661.00 C628.58,661.00 628.19,664.10 624.26,669.07 C623.38,670.19 623.47,670.71 625.26,671.68 ZM 360.02 705.05 C361.79,706.18 364.04,705.89 364.28,704.50 C364.64,702.39 367.36,700.20 368.90,700.78 C370.32,701.31 370.34,701.17 369.04,699.58 C368.11,698.44 367.43,698.20 367.19,698.93 C366.92,699.73 366.43,699.77 365.57,699.06 C364.68,698.32 363.53,698.88 361.44,701.07 C359.01,703.60 358.78,704.25 360.02,705.05 ZM 624.30 712.60 C624.51,712.97 624.81,713.31 625.13,713.56 C620.42,713.84 613.76,713.61 610.05,712.96 C611.16,712.90 612.00,712.34 612.00,711.38 C612.00,710.00 612.83,709.87 617.75,710.48 C620.99,710.88 623.85,711.81 624.30,712.60 ZM 642.35 703.65 C641.30,704.74 640.12,705.60 638.81,706.22 C636.80,707.17 634.53,708.84 633.77,709.92 C633.00,711.01 631.23,712.34 629.83,712.88 C629.54,712.99 629.15,713.08 628.69,713.17 C629.96,712.42 631.00,711.31 631.00,710.42 C631.00,709.58 632.60,707.26 634.55,705.25 C636.50,703.24 637.83,702.27 637.52,703.10 C636.80,704.97 640.16,705.00 642.35,703.65 ZM 684.09 661.05 L 688.64 660.91 L 688.87 665.95 L 689.10 671.00 L 681.05 671.00 C687.18,671.00 687.85,670.45 685.96,666.93 C685.25,665.59 685.26,664.39 686.00,663.00 C686.87,661.37 686.81,661.06 684.09,661.05 ZM 534.75 710.65 C532.91,709.88 531.30,709.03 530.18,708.17 C527.91,706.43 527.90,706.30 529.47,702.36 C531.34,697.69 532.78,697.51 542.00,700.80 C544.33,701.63 546.53,702.34 548.53,702.91 C546.87,702.66 544.26,701.95 542.06,701.12 C539.33,700.08 536.90,699.44 536.64,699.69 C536.18,700.15 533.48,700.78 531.34,700.92 C530.70,700.97 530.29,702.01 530.43,703.25 C530.92,707.53 531.65,709.16 534.75,710.65 ZM 405.40 701.93 C402.61,706.57 398.09,710.13 392.77,712.22 C392.78,712.01 392.74,711.76 392.64,711.49 C392.25,710.49 393.38,709.15 396.07,707.46 C398.27,706.07 400.40,705.13 400.80,705.38 C401.78,705.98 403.78,704.41 405.40,701.93 ZM 672.92 713.36 C672.39,713.63 672.52,713.74 673.22,713.60 C674.08,713.42 674.60,711.02 674.79,706.34 C675.03,700.57 674.81,699.33 673.54,699.33 C672.69,699.33 672.00,699.93 672.00,700.67 C672.00,701.40 672.45,702.00 673.00,702.00 C674.45,702.00 674.23,706.76 672.76,707.25 C671.79,707.57 671.78,708.23 672.71,710.26 C673.45,711.89 673.53,713.05 672.92,713.36 ZM 541.72 661.39 C540.73,660.40 538.00,662.35 538.00,664.03 C538.00,666.89 541.44,667.02 541.83,664.18 C542.00,662.88 541.96,661.62 541.72,661.39 ZM 726.66 661.68 C726.95,661.84 727.10,662.03 727.13,662.25 C727.60,666.83 727.82,669.02 726.84,670.06 C726.55,670.36 726.15,670.57 725.63,670.71 L 725.86 666.82 C725.99,664.52 726.33,662.27 726.61,661.82 C726.64,661.77 726.66,661.72 726.66,661.68 ZM 507.43 689.89 C508.35,691.38 509.52,691.29 510.90,689.62 C511.78,688.56 511.73,688.11 510.68,687.71 C508.83,687.00 506.58,688.51 507.43,689.89 ZM 464.00 698.07 C464.00,698.43 464.72,698.75 465.75,698.90 C463.59,698.76 461.77,698.44 461.46,697.93 C461.09,697.34 460.17,697.11 459.40,697.40 C459.07,697.53 458.81,697.54 458.60,697.41 C458.69,697.39 458.79,697.31 458.89,697.14 C459.82,695.68 464.00,696.43 464.00,698.07 ZM 287.75 648.34 C287.88,647.12 288.03,646.37 288.20,646.20 C288.82,645.58 291.44,645.07 294.21,645.01 C292.32,645.08 290.97,645.63 290.64,646.50 C290.32,647.33 289.37,648.00 288.53,648.00 C288.21,648.00 287.95,648.10 287.75,648.34 ZM 707.50 683.00 C707.98,683.78 708.56,683.84 709.23,683.17 C709.78,682.62 709.90,681.65 709.50,681.00 C709.02,680.22 708.44,680.16 707.77,680.83 C707.22,681.38 707.10,682.35 707.50,683.00 ZM 288.20 712.80 C288.09,712.69 287.99,712.34 287.90,711.78 C288.27,711.96 288.81,712.00 289.56,712.00 C291.01,712.00 291.85,712.43 291.50,713.00 C291.12,713.61 292.66,714.00 295.44,714.00 L 294.70 714.00 C291.79,714.00 288.86,713.46 288.20,712.80 ZM 547.00 706.00 C547.00,706.55 546.55,707.00 546.00,707.00 C545.45,707.00 545.00,706.55 545.00,706.00 C545.00,705.45 545.45,705.00 546.00,705.00 C546.55,705.00 547.00,705.45 547.00,706.00 ZM 708.94 648.38 L 714.00 648.50 L 714.00 650.70 C713.97,648.73 713.48,648.50 708.94,648.38 ZM 521.68 695.98 L 521.50 698.50 L 520.19 698.56 C521.09,698.20 521.47,697.50 521.68,695.98 ZM 496.00 681.50 C496.00,676.76 496.94,674.02 499.20,672.89 C497.08,674.24 496.00,677.13 496.00,681.50 ZM 310.41 685.01 L 305.32 690.63 L 301.66 694.68 L 305.20 690.72 L 310.35 684.95 L 310.41 685.01 ZM 343.29 645.11 C344.90,645.22 346.08,645.42 346.30,645.63 C346.36,645.69 346.35,645.82 346.29,646.00 C345.90,645.55 344.90,645.26 343.29,645.11 ZM 509.00 714.00 L 503.75 713.88 C502.58,713.86 501.63,713.80 500.98,713.72 L 503.75 713.82 L 509.00 714.00 ZM 655.49 670.22 C654.95,669.95 654.52,669.64 654.25,669.28 C652.89,667.47 652.77,665.51 653.56,663.95 C652.55,666.05 653.16,668.76 655.49,670.22 ZM 458.18 696.69 C458.06,696.21 458.00,695.50 458.00,694.53 C458.00,693.32 458.07,692.25 458.23,691.29 C457.95,693.35 457.95,695.58 458.18,696.69 ZM 485.49 687.19 C488.22,687.18 491.37,687.13 494.75,687.04 C491.13,687.14 488.05,687.19 485.49,687.19 ZM 500.93 645.71 C501.27,645.90 501.50,646.14 501.60,646.41 C501.61,646.43 501.62,646.44 501.62,646.46 C501.49,646.17 501.26,645.91 500.93,645.71 ZM 448.43 660.17 C448.54,660.17 448.65,660.18 448.76,660.19 L 452.50 660.50 L 448.64 660.18 L 448.43 660.17 ZM 571.81 711.44 C571.44,711.60 571.06,711.76 570.67,711.91 C571.00,711.77 571.34,711.63 571.69,711.48 C571.73,711.47 571.77,711.45 571.81,711.44 ZM 389.95 673.17 C390.08,673.25 390.20,673.33 390.33,673.42 C390.21,673.34 390.08,673.25 389.95,673.17 Z" fill="rgba(42,51,58,1)"/>
<path d="M 291.50 713.00 C291.85,712.43 291.01,712.00 289.56,712.00 C287.23,712.00 287.00,711.63 287.00,707.93 C287.00,704.23 287.14,704.00 288.57,705.43 C293.08,709.93 297.21,703.84 293.75,697.79 C291.64,694.10 290.63,693.28 288.78,693.77 C287.17,694.19 287.00,693.35 287.00,684.88 L 287.00 675.54 L 289.52 679.24 C292.85,684.14 295.01,685.24 298.76,683.93 C301.08,683.12 301.66,682.38 301.45,680.45 C301.28,678.98 301.69,678.00 302.47,678.00 C303.17,678.00 304.37,677.21 305.13,676.25 C306.40,674.63 306.35,674.61 304.50,676.00 C302.68,677.36 302.62,677.35 303.76,675.89 C304.86,674.47 306.01,674.30 310.51,674.87 C311.06,674.94 312.08,676.29 312.79,677.88 C313.79,680.14 314.92,680.89 318.07,681.39 C322.34,682.08 323.23,683.25 323.34,688.33 C323.41,691.34 323.24,691.49 319.97,691.21 C317.76,691.03 315.41,689.85 313.44,687.94 L 310.35 684.95 L 300.04 696.50 L 300.00 714.00 L 295.44 714.00 C292.66,714.00 291.12,713.61 291.50,713.00 ZM 464.00 698.07 C464.00,696.43 459.82,695.68 458.89,697.14 C457.88,698.74 457.68,692.78 458.63,689.25 C459.12,687.41 459.93,687.00 463.12,687.00 C465.25,687.00 467.00,687.40 467.00,687.88 C467.00,688.37 467.79,688.99 468.75,689.27 C469.71,689.55 471.29,690.10 472.25,690.49 C473.65,691.07 474.00,690.70 474.00,688.67 C474.00,687.26 474.46,685.83 475.02,685.48 C475.59,685.14 475.93,685.39 475.77,686.04 C475.53,687.10 481.60,687.41 494.75,687.04 C495.59,687.01 496.00,685.21 496.00,681.50 C496.00,675.22 498.23,672.00 502.58,672.00 C505.70,672.00 505.38,674.35 502.19,674.82 C500.15,675.12 500.12,675.26 501.64,677.57 C502.51,678.91 503.91,680.00 504.74,680.00 C505.90,680.00 506.10,680.73 505.61,683.18 C504.74,687.56 504.15,687.85 502.00,685.00 C500.98,683.64 499.82,682.85 499.43,683.23 C498.57,684.10 497.84,688.56 497.95,692.28 C498.12,697.65 496.54,699.00 490.07,699.00 C484.94,699.00 483.81,698.63 481.00,696.00 C479.23,694.35 477.05,693.00 476.14,693.00 C474.14,693.00 468.78,697.44 469.68,698.35 C470.04,698.71 468.91,699.00 467.17,699.00 C465.42,699.00 464.00,698.58 464.00,698.07 ZM 704.46 675.76 C704.15,674.96 704.04,673.69 704.20,672.94 C704.55,671.35 701.83,670.97 700.77,672.47 C700.29,673.13 700.03,673.05 700.02,672.25 C700.01,671.56 699.21,670.96 698.25,670.92 C696.87,670.86 696.81,670.72 697.98,670.26 C698.80,669.94 700.08,669.07 700.82,668.32 C701.97,667.17 701.70,666.79 699.09,665.88 C695.59,664.66 694.68,661.00 697.88,661.00 C698.91,661.00 700.18,660.44 700.70,659.75 C702.08,657.93 704.18,650.11 703.56,649.10 C703.27,648.63 705.50,648.30 708.51,648.37 C713.59,648.49 714.00,648.68 714.00,650.88 C714.00,652.19 713.19,653.99 712.19,654.88 C709.39,657.40 707.00,661.26 707.00,663.29 C707.00,664.73 707.49,664.99 709.25,664.47 C710.49,664.10 712.00,663.17 712.61,662.40 C713.82,660.88 727.54,660.32 726.61,661.82 C726.33,662.27 725.99,664.52 725.86,666.82 L 725.61 671.00 L 719.80 671.00 C714.81,671.00 714.00,671.26 714.00,672.86 C714.00,674.31 713.44,674.62 711.50,674.24 C709.88,673.94 709.00,674.22 709.00,675.05 C709.00,675.76 708.70,676.04 708.34,675.68 C707.98,675.31 707.09,675.51 706.35,676.12 C705.36,676.95 704.88,676.86 704.46,675.76 ZM 624.30 712.60 C623.85,711.81 620.99,710.88 617.75,710.48 C612.83,709.87 612.00,710.00 612.00,711.38 C612.00,713.07 609.37,713.52 607.29,712.20 C605.17,710.85 606.98,707.16 610.10,706.48 C612.03,706.05 613.00,705.22 613.00,703.99 C613.00,702.42 613.44,702.27 615.93,702.98 C617.54,703.44 620.57,703.43 622.66,702.96 C625.55,702.31 626.85,702.46 628.12,703.60 C629.60,704.95 630.06,704.83 632.64,702.46 C634.44,700.80 634.85,700.03 633.75,700.38 C631.55,701.08 631.56,700.78 633.96,696.08 C636.75,690.60 641.10,689.59 642.53,694.09 C642.86,695.14 643.55,696.00 644.07,696.00 C645.50,696.00 645.17,700.38 643.58,702.56 C641.85,704.92 636.64,705.39 637.52,703.10 C637.83,702.27 636.50,703.24 634.55,705.25 C632.60,707.26 631.00,709.58 631.00,710.42 C631.00,711.90 628.13,714.00 626.12,714.00 C625.56,714.00 624.74,713.37 624.30,712.60 ZM 380.23 711.89 C378.05,709.25 378.04,709.09 379.80,707.82 C380.81,707.09 381.91,705.75 382.25,704.83 C383.03,702.75 386.61,702.14 390.28,703.46 C394.68,705.04 396.56,703.21 396.23,697.62 C395.96,692.99 396.37,692.49 400.00,692.96 C400.83,693.07 402.92,694.11 404.67,695.29 C407.79,697.39 407.81,697.47 406.26,700.46 C404.56,703.75 401.96,706.09 400.80,705.38 C400.40,705.13 398.27,706.07 396.07,707.46 C393.38,709.15 392.25,710.49 392.64,711.49 C392.97,712.37 392.65,713.02 391.86,713.04 C391.11,713.07 388.70,713.43 386.50,713.86 C382.89,714.56 382.28,714.36 380.23,711.89 ZM 537.80 711.85 C532.06,709.85 531.05,708.67 530.43,703.25 C530.29,702.01 530.70,700.97 531.34,700.92 C533.48,700.78 536.18,700.15 536.64,699.69 C536.90,699.44 539.33,700.08 542.06,701.12 C544.79,702.15 548.16,703.00 549.55,703.00 C551.71,703.00 551.93,703.27 551.06,704.90 C550.21,706.48 550.45,706.90 552.52,707.42 C556.70,708.46 555.60,711.00 550.97,711.00 C548.31,711.00 546.74,711.51 546.36,712.50 C545.64,714.37 544.86,714.32 537.80,711.85 ZM 565.58 689.14 C565.29,688.66 563.07,687.72 560.64,687.04 C556.53,685.89 556.27,685.62 556.93,683.15 C557.41,681.34 558.66,680.16 560.90,679.42 C562.70,678.83 564.53,677.76 564.97,677.05 C565.62,676.00 566.70,676.10 570.48,677.55 C573.08,678.54 575.31,679.83 575.45,680.42 C575.58,681.02 576.20,683.03 576.82,684.90 C577.43,686.76 577.74,688.62 577.49,689.02 C577.24,689.41 575.25,689.41 573.05,689.01 C570.85,688.61 569.29,688.67 569.59,689.14 C569.88,689.61 569.22,690.00 568.12,690.00 C567.02,690.00 565.88,689.61 565.58,689.14 ZM 294.20 664.31 C292.59,662.49 291.25,661.91 289.48,662.25 C287.02,662.72 287.00,662.66 287.00,655.36 C287.00,649.42 287.29,648.00 288.53,648.00 C289.37,648.00 290.32,647.33 290.64,646.50 C290.99,645.57 292.51,645.00 294.61,645.00 C298.64,645.00 299.06,646.84 295.93,650.82 C293.67,653.69 293.89,657.96 296.58,663.16 C298.46,666.78 297.03,667.47 294.20,664.31 ZM 394.56 678.85 C393.56,676.60 391.46,674.03 389.88,673.13 C386.55,671.24 386.18,670.00 388.94,670.00 C390.01,670.00 391.16,669.55 391.50,669.00 C392.75,666.97 399.54,667.89 401.90,670.40 C404.71,673.38 404.43,677.99 401.36,679.52 C400.18,680.10 398.57,681.11 397.79,681.76 C396.62,682.73 396.04,682.21 394.56,678.85 ZM 538.83 680.16 C536.23,678.85 535.56,677.94 535.76,675.99 C536.30,670.76 541.48,668.87 549.03,671.13 C552.73,672.24 552.77,672.31 551.55,675.22 C550.74,677.13 548.86,678.83 546.23,680.01 C542.40,681.72 541.97,681.73 538.83,680.16 ZM 562.31 711.29 C559.48,704.68 559.61,703.45 563.27,702.33 C570.06,700.25 574.90,702.51 574.97,707.80 C574.99,709.47 574.10,710.48 571.69,711.48 C564.85,714.34 563.60,714.32 562.31,711.29 ZM 320.36 665.49 C319.30,662.74 320.99,657.35 323.68,654.91 C325.13,653.58 325.94,653.17 325.47,654.00 C324.73,655.29 324.85,655.31 326.31,654.13 C327.50,653.16 328.00,653.10 328.00,653.94 C328.00,654.59 328.38,654.88 328.85,654.59 C330.15,653.79 333.07,656.30 333.44,658.53 C333.97,661.72 328.26,667.00 324.27,667.00 C322.22,667.00 320.71,666.42 320.36,665.49 ZM 631.22 675.97 C630.52,674.86 628.39,673.20 626.48,672.29 C623.54,670.89 623.21,670.40 624.26,669.07 C628.19,664.10 628.58,661.00 625.27,661.00 C624.39,661.00 623.94,660.73 624.27,660.40 C625.09,659.58 634.62,662.82 635.77,664.30 C637.11,666.05 636.10,673.21 634.16,675.79 C632.49,678.00 632.48,678.00 631.22,675.97 ZM 704.15 708.46 L 702.15 705.92 L 704.33 703.65 C705.52,702.39 706.89,701.57 707.36,701.81 C708.99,702.65 709.91,699.65 708.37,698.53 C706.25,696.98 708.17,692.02 710.69,692.50 C711.69,692.69 712.84,692.88 713.25,692.92 C714.69,693.07 714.02,699.06 712.50,699.64 C710.43,700.43 710.62,701.87 713.06,703.85 C715.73,706.01 714.78,708.53 710.77,709.93 C706.59,711.39 706.42,711.35 704.15,708.46 ZM 425.62 692.20 C425.31,691.69 424.75,688.71 424.38,685.59 C423.64,679.29 424.95,675.51 428.15,674.67 C429.20,674.40 429.97,673.80 429.87,673.34 C429.66,672.42 430.56,669.79 432.34,666.09 C433.25,664.20 433.57,664.04 433.83,665.36 C434.00,666.27 434.53,666.79 434.99,666.50 C436.71,665.44 437.06,671.58 435.46,674.79 C433.65,678.40 430.50,680.62 429.49,678.99 C428.00,676.57 426.90,679.66 427.16,685.54 C427.44,691.63 426.85,694.18 425.62,692.20 ZM 472.62 676.88 C472.18,674.64 471.95,673.54 472.21,672.57 C472.46,671.60 473.17,670.76 474.59,669.08 C477.58,665.52 482.94,664.68 483.08,667.75 C483.12,668.71 483.32,670.37 483.51,671.43 C484.03,674.18 482.40,676.74 479.02,678.49 C474.71,680.72 473.32,680.37 472.62,676.88 ZM 558.50 655.00 C555.75,654.62 554.46,654.24 555.63,654.16 C558.58,653.94 560.10,651.77 560.32,647.47 L 560.50 643.81 L 564.95 644.41 C571.77,645.34 572.99,648.90 568.01,653.33 C566.36,654.80 564.68,655.93 564.26,655.84 C563.84,655.76 561.25,655.38 558.50,655.00 ZM 328.25 705.87 C324.96,701.58 324.99,699.91 328.43,697.06 C331.80,694.26 337.00,698.19 337.00,703.52 C337.00,704.64 332.59,710.00 331.67,710.00 C331.54,710.00 330.00,708.14 328.25,705.87 ZM 674.20 683.19 C674.09,682.47 673.55,682.16 673.00,682.50 C672.43,682.85 672.00,681.99 672.00,680.50 C672.00,679.01 672.43,678.15 673.00,678.50 C673.58,678.86 674.00,677.84 674.00,676.06 C674.00,674.38 673.55,673.00 673.00,673.00 C671.22,673.00 671.90,668.16 673.75,667.63 C674.71,667.35 677.43,666.62 679.78,666.01 C684.20,664.87 684.49,663.54 680.65,661.99 C678.93,661.30 679.35,661.11 682.79,661.06 C686.77,661.00 686.99,661.14 686.00,663.00 C685.26,664.39 685.25,665.59 685.96,666.93 C687.85,670.45 687.18,671.00 681.05,671.00 L 675.09 671.00 L 674.74 677.75 C674.55,681.46 674.30,683.91 674.20,683.19 ZM 490.19 655.65 C487.86,652.62 487.98,650.63 490.66,647.84 C492.72,645.68 494.30,645.00 497.22,645.00 C499.72,645.00 501.26,645.53 501.64,646.51 C503.06,650.21 492.49,658.64 490.19,655.65 ZM 353.00 685.57 C353.00,682.17 353.39,681.00 354.50,681.00 C355.33,681.00 356.00,680.33 356.00,679.50 C356.00,677.14 360.39,677.71 363.35,680.45 C365.21,682.17 365.99,683.89 365.97,686.20 L 365.93 689.50 L 363.94 687.10 L 361.94 684.71 L 359.72 686.74 C358.50,687.86 356.49,689.08 355.25,689.45 C353.15,690.09 353.00,689.84 353.00,685.57 ZM 443.38 670.76 C443.99,669.79 444.71,669.00 445.00,669.00 C445.28,669.00 445.35,666.95 445.15,664.43 L 444.79 659.87 L 448.64 660.18 L 452.50 660.50 L 452.50 671.50 L 447.39 672.01 C442.69,672.49 442.37,672.39 443.38,670.76 ZM 602.21 675.71 C600.92,674.08 601.67,670.02 603.68,667.80 C605.70,665.57 611.00,665.35 611.00,667.50 C611.00,668.33 611.65,669.00 612.44,669.00 C614.96,669.00 615.21,670.97 612.81,672.00 C611.54,672.55 609.83,673.38 609.00,673.84 C603.99,676.67 603.16,676.90 602.21,675.71 ZM 658.50 671.21 C650.99,670.37 651.44,661.00 658.99,661.00 C660.55,661.00 662.04,660.44 662.30,659.75 C662.61,658.91 663.01,659.09 663.51,660.30 C664.01,661.52 663.54,662.86 662.04,664.46 C660.18,666.44 660.01,667.16 661.00,668.99 C662.39,671.59 662.33,671.64 658.50,671.21 ZM 368.67 671.39 C365.57,668.30 366.40,665.44 370.70,664.36 C372.87,663.82 373.88,664.30 376.34,667.05 L 379.33 670.40 L 376.60 671.13 C375.10,671.53 373.29,672.34 372.58,672.94 C371.61,673.74 370.62,673.35 368.67,671.39 ZM 669.52 699.28 C669.11,698.06 667.95,696.80 666.93,696.48 C663.53,695.40 663.16,683.00 666.52,683.00 C667.27,683.00 668.59,682.00 669.44,680.78 C670.99,678.58 671.00,678.57 671.00,680.66 C671.00,681.81 670.33,683.32 669.50,684.00 C667.54,685.63 667.57,691.95 669.57,694.79 C670.43,696.02 670.94,698.04 670.69,699.27 L 670.25 701.50 ZM 594.42 700.88 C594.13,700.39 594.36,700.00 594.94,700.00 C595.52,700.00 596.00,699.00 596.00,697.78 C596.00,696.56 597.24,694.50 598.75,693.21 C600.26,691.92 602.06,689.43 602.74,687.68 C603.92,684.63 603.95,684.70 603.46,689.50 C603.17,692.25 602.89,695.76 602.83,697.30 C602.75,699.19 602.29,699.94 601.39,699.60 C600.66,699.32 599.76,699.59 599.38,700.20 C598.93,700.92 599.15,701.02 600.00,700.50 C600.81,700.00 601.07,700.08 600.67,700.72 C599.90,701.97 595.17,702.09 594.42,700.88 ZM 540.92 655.92 C538.47,653.47 538.48,651.35 540.93,650.04 C543.80,648.50 545.98,648.77 546.68,650.75 C547.02,651.71 547.94,653.25 548.73,654.16 C549.98,655.63 549.88,655.91 547.82,656.60 C543.74,657.97 542.89,657.89 540.92,655.92 ZM 503.25 713.26 C508.78,712.83 509.42,711.13 505.61,707.05 C501.90,703.08 501.60,700.72 504.43,697.67 C505.78,696.21 507.14,695.43 507.45,695.93 C507.76,696.43 507.32,697.54 506.47,698.39 C505.06,699.80 505.11,700.11 506.96,701.69 C508.54,703.05 509.00,704.64 509.00,708.72 L 509.00 714.00 L 498.50 713.64 ZM 676.04 649.60 C672.85,648.19 673.57,645.62 677.50,644.39 C680.58,643.43 681.00,643.51 681.00,645.04 C681.00,646.08 682.58,647.52 684.96,648.64 L 688.91 650.50 L 683.50 650.50 C680.52,650.50 677.16,650.09 676.04,649.60 ZM 336.50 649.00 C333.76,645.97 334.72,645.00 340.44,645.00 C346.80,645.00 348.12,646.22 344.41,648.65 C340.93,650.93 338.35,651.05 336.50,649.00 ZM 517.20 698.48 C517.59,698.08 517.25,697.11 516.45,696.31 C514.92,694.77 514.49,692.07 515.75,691.90 C521.98,691.08 522.12,691.14 521.80,694.90 C521.55,697.88 521.07,698.56 519.00,698.85 C517.62,699.04 516.82,698.87 517.20,698.48 ZM 360.02 705.05 C358.78,704.25 359.01,703.60 361.44,701.07 C363.53,698.88 364.68,698.32 365.57,699.06 C366.43,699.77 366.92,699.73 367.19,698.93 C367.43,698.20 368.11,698.44 369.04,699.58 C370.34,701.17 370.32,701.31 368.90,700.78 C367.36,700.20 364.64,702.39 364.28,704.50 C364.04,705.89 361.79,706.18 360.02,705.05 ZM 720.93 711.87 C720.04,710.21 720.09,709.56 721.15,708.89 C723.56,707.36 726.04,707.95 726.91,710.25 C728.38,714.18 722.96,715.65 720.93,711.87 ZM 672.92 713.36 C673.53,713.05 673.45,711.89 672.71,710.26 C671.78,708.23 671.79,707.57 672.76,707.25 C674.23,706.76 674.45,702.00 673.00,702.00 C672.45,702.00 672.00,701.40 672.00,700.67 C672.00,699.93 672.69,699.33 673.54,699.33 C674.81,699.33 675.03,700.57 674.79,706.34 C674.60,711.02 674.08,713.42 673.22,713.60 C672.52,713.74 672.39,713.63 672.92,713.36 ZM 507.43 689.89 C506.58,688.51 508.83,687.00 510.68,687.71 C511.73,688.11 511.78,688.56 510.90,689.62 C509.52,691.29 508.35,691.38 507.43,689.89 ZM 681.00 640.50 C681.00,639.55 681.96,639.00 683.62,639.00 C685.84,639.00 686.05,639.23 685.00,640.50 C684.32,641.33 683.14,642.00 682.38,642.00 C681.62,642.00 681.00,641.33 681.00,640.50 ZM 343.00 712.50 C343.00,711.67 343.89,711.00 344.97,711.00 C346.31,711.00 346.75,711.48 346.36,712.50 C346.05,713.33 345.16,714.00 344.39,714.00 C343.63,714.00 343.00,713.33 343.00,712.50 ZM 707.50 683.00 C707.10,682.35 707.22,681.38 707.77,680.83 C708.44,680.16 709.02,680.22 709.50,681.00 C709.90,681.65 709.78,682.62 709.23,683.17 C708.56,683.84 707.98,683.78 707.50,683.00 ZM 547.00 706.00 C547.00,705.45 546.55,705.00 546.00,705.00 C545.45,705.00 545.00,705.45 545.00,706.00 C545.00,706.55 545.45,707.00 546.00,707.00 C546.55,707.00 547.00,706.55 547.00,706.00 Z" fill="rgba(44,54,62,1)"/>
<path d="M 375.42 566.79 C375.62,574.59 375.91,577.13 376.32,577.29 C377.02,577.56 379.56,574.95 383.70,569.76 C379.27,575.51 376.20,579.37 375.89,579.57 C375.70,579.68 375.55,575.27 375.42,566.79 ZM 443.66 491.00 C444.26,490.36 444.71,490.07 445.09,490.10 C444.72,490.07 444.27,490.36 443.68,491.00 C443.22,491.49 440.91,494.46 437.09,499.43 C441.12,494.16 443.25,491.43 443.66,491.00 ZM 375.14 331.07 L 375.07 411.87 L 375.14 331.07 L 375.14 331.07 Z" fill="rgba(60,72,76,1)"/>
<path d="M 416.50 457.58 C415.80,457.93 415.18,458.67 414.96,459.48 C414.19,462.37 409.39,462.80 408.52,460.06 C407.71,457.50 403.15,456.16 401.89,458.11 C401.27,459.08 401.76,460.17 403.50,461.70 C404.88,462.91 406.00,464.53 406.00,465.31 C406.00,466.08 407.06,467.86 408.36,469.26 C412.75,473.99 415.00,477.79 415.00,480.47 C415.00,481.93 415.49,484.04 416.09,485.16 C417.40,487.61 416.56,491.57 414.57,492.34 C413.77,492.64 411.51,492.63 409.55,492.31 C406.72,491.85 404.99,490.52 401.24,485.87 C397.59,481.35 395.88,480.01 393.81,480.00 C390.20,480.00 389.63,478.73 392.02,475.98 C393.11,474.72 394.00,473.38 394.00,473.00 C394.00,470.85 397.75,468.52 400.75,468.81 C403.45,469.07 404.00,468.78 404.00,467.10 C404.00,464.75 400.86,462.73 398.57,463.61 C397.34,464.08 396.99,463.49 396.97,460.86 C396.95,459.01 396.31,456.68 395.55,455.67 C393.60,453.10 395.32,448.65 399.87,444.48 L 403.46 441.19 L 406.93 444.24 L 410.40 447.29 L 411.82 445.14 C412.60,443.96 413.86,443.00 414.62,443.00 C416.69,443.00 416.58,422.81 414.49,419.62 C411.98,415.80 412.00,402.14 414.51,399.63 C415.82,398.33 415.99,393.40 415.76,364.31 L 415.50 330.50 L 416.00 394.33 L 416.50 457.58 ZM 375.13 340.34 C375.23,344.35 375.53,349.17 375.85,351.68 C376.47,356.66 376.76,357.06 383.25,361.97 C387.57,365.23 390.00,367.78 390.00,369.03 C390.00,371.38 386.34,375.33 384.96,374.47 C383.62,373.65 381.50,375.96 379.33,380.60 C377.62,384.25 377.49,389.35 377.28,460.00 C377.15,501.52 376.93,538.20 376.78,541.50 C376.27,552.74 380.87,562.00 386.96,562.00 C388.69,562.00 389.86,561.42 391.60,559.42 C390.29,561.15 388.96,562.92 387.60,564.72 C381.16,573.24 377.21,577.64 376.32,577.29 C375.16,576.85 374.96,557.38 375.04,453.91 L 375.13 340.34 ZM 497.17 352.47 C491.46,360.03 483.86,370.09 477.63,378.32 C465.78,393.98 462.14,399.46 462.94,400.42 C464.15,401.88 463.69,402.49 452.47,414.16 C448.42,418.38 444.44,423.42 443.63,425.35 C441.86,429.58 434.31,440.00 433.02,440.00 C431.83,440.00 423.46,451.81 422.56,454.75 C422.18,455.99 421.22,457.06 420.43,457.12 C419.64,457.19 418.21,457.30 417.25,457.36 C417.24,457.36 417.23,457.36 417.22,457.36 L 418.59 455.83 C419.74,454.55 429.85,441.35 441.06,426.51 C452.27,411.66 461.99,398.84 462.67,398.01 C463.35,397.18 474.27,382.77 486.93,366.00 C490.50,361.26 493.99,356.66 497.17,352.47 ZM 415.08 528.38 C416.95,525.59 418.36,522.39 418.54,519.75 C418.78,516.46 419.47,515.05 421.60,513.50 C423.11,512.40 424.99,510.76 425.78,509.85 C426.56,508.94 428.81,506.47 430.77,504.35 C432.73,502.23 435.87,497.89 437.74,494.71 C440.65,489.75 441.46,489.01 443.32,489.59 C443.81,489.74 444.31,489.94 444.74,490.16 C444.43,490.27 444.08,490.55 443.66,491.00 C442.78,491.93 433.83,503.63 415.08,528.38 ZM 394.52 555.56 C396.38,552.81 396.99,551.08 396.63,549.68 C395.23,544.08 401.64,535.00 406.99,535.00 C408.80,535.00 411.12,533.29 413.21,530.85 C407.77,538.04 401.55,546.26 394.52,555.56 ZM 497.23 419.27 C500.06,415.26 500.77,413.24 500.76,410.70 C500.75,407.76 503.31,405.09 506.18,405.03 C507.18,405.01 516.06,394.23 528.24,378.25 C529.47,376.64 530.65,375.08 531.80,373.58 C522.87,385.36 513.21,398.13 506.69,406.76 C503.37,411.17 500.13,415.45 497.23,419.27 ZM 471.29 454.75 C470.61,451.14 472.19,447.91 475.99,445.67 C476.88,445.14 478.22,443.88 479.58,442.36 C475.81,447.56 472.29,452.77 471.29,454.75 ZM 538.72 330.00 C521.54,330.00 514.96,330.34 513.80,331.25 C513.39,331.58 512.04,333.16 510.18,335.48 C511.32,334.02 512.07,333.08 512.36,332.75 L 514.77 330.00 L 538.72 330.00 ZM 461.00 463.00 C461.00,463.55 460.55,464.00 460.00,464.00 C459.45,464.00 459.00,463.55 459.00,463.00 C459.00,462.45 459.45,462.00 460.00,462.00 C460.55,462.00 461.00,462.45 461.00,463.00 ZM 485.46 434.57 C487.51,431.81 489.99,428.59 492.06,426.00 C492.41,425.56 492.75,425.14 493.07,424.74 C489.55,429.35 487.05,432.61 486.38,433.43 C486.08,433.79 485.77,434.17 485.46,434.57 ZM 395.29 330.16 C387.15,330.08 379.83,330.21 378.25,330.50 L 375.14 331.07 L 375.14 331.07 L 378.25 330.50 L 378.32 330.49 C379.87,330.21 387.15,330.08 395.29,330.16 Z" fill="rgba(78,85,89,1)"/>
<path d="M 493.00 403.89 C498.77,404.35 504.48,404.78 505.68,404.86 C506.19,404.89 506.94,404.45 508.17,403.26 C507.10,404.41 506.42,405.03 506.18,405.03 C503.31,405.09 500.75,407.76 500.76,410.70 C500.77,414.37 499.29,416.97 492.06,426.00 C488.76,430.12 484.43,435.86 482.43,438.75 C480.44,441.64 477.54,444.75 475.99,445.67 C470.95,448.64 469.81,453.35 472.68,458.40 C472.64,458.35 472.61,458.30 472.57,458.25 L 470.20 455.00 L 457.88 471.75 C451.10,480.96 445.21,488.65 444.79,488.83 C444.36,489.01 444.58,489.74 445.26,490.44 C445.26,490.44 445.26,490.44 445.26,490.44 C444.74,490.13 444.03,489.81 443.32,489.59 C441.46,489.01 440.65,489.75 437.74,494.71 C435.87,497.89 432.73,502.23 430.77,504.35 C428.81,506.47 426.56,508.94 425.78,509.85 C424.99,510.76 423.11,512.40 421.60,513.50 C419.47,515.05 418.78,516.46 418.54,519.75 C418.11,525.85 411.17,535.00 406.99,535.00 C401.64,535.00 395.23,544.08 396.63,549.68 C397.04,551.31 396.16,553.38 393.52,556.98 C390.57,560.99 389.25,562.00 386.96,562.00 C380.87,562.00 376.27,552.74 376.78,541.50 C376.93,538.20 377.15,501.52 377.28,460.00 C377.49,389.35 377.62,384.25 379.33,380.60 C381.50,375.96 383.62,373.65 384.96,374.47 C386.34,375.33 390.00,371.38 390.00,369.03 C390.00,367.83 387.76,365.44 383.78,362.37 C391.48,368.02 400.58,373.84 408.24,378.00 L 415.50 381.94 L 415.73 360.44 L 415.76 364.31 C415.99,393.40 415.82,398.33 414.51,399.63 C412.00,402.14 411.98,415.80 414.49,419.62 C416.58,422.81 416.69,443.00 414.62,443.00 C413.86,443.00 412.60,443.96 411.82,445.14 L 410.40 447.29 L 406.93 444.24 L 403.46 441.19 L 399.87 444.48 C395.32,448.65 393.60,453.10 395.55,455.67 C396.31,456.68 396.95,459.01 396.97,460.86 C396.99,463.49 397.34,464.08 398.57,463.61 C400.86,462.73 404.00,464.75 404.00,467.10 C404.00,468.78 403.45,469.07 400.75,468.81 C397.75,468.52 394.00,470.85 394.00,473.00 C394.00,473.38 393.11,474.72 392.02,475.98 C389.63,478.73 390.20,480.00 393.81,480.00 C395.88,480.01 397.59,481.35 401.24,485.87 C404.99,490.52 406.72,491.85 409.55,492.31 C411.51,492.63 413.77,492.64 414.57,492.34 C416.56,491.57 417.40,487.61 416.09,485.16 C415.49,484.04 415.00,481.93 415.00,480.47 C415.00,477.79 412.75,473.99 408.36,469.26 C407.06,467.86 406.00,466.08 406.00,465.31 C406.00,464.53 404.88,462.91 403.50,461.70 C401.76,460.17 401.27,459.08 401.89,458.11 C403.15,456.16 407.71,457.50 408.52,460.06 C409.39,462.80 414.19,462.37 414.96,459.48 C415.26,458.38 416.29,457.42 417.25,457.36 C418.21,457.30 419.64,457.19 420.43,457.12 C421.22,457.06 422.18,455.99 422.56,454.75 C423.46,451.81 431.83,440.00 433.02,440.00 C434.31,440.00 441.86,429.58 443.63,425.35 C444.44,423.42 448.42,418.38 452.47,414.16 C463.69,402.49 464.15,401.88 462.94,400.42 C462.72,400.16 462.83,399.56 463.35,398.51 C463.90,399.91 480.42,402.91 493.00,403.89 ZM 463.84 397.61 C465.61,394.50 469.85,388.61 477.63,378.32 C478.91,376.63 480.25,374.86 481.62,373.05 C473.14,384.48 465.77,394.60 463.84,397.61 ZM 461.00 463.00 C461.00,462.45 460.55,462.00 460.00,462.00 C459.45,462.00 459.00,462.45 459.00,463.00 C459.00,463.55 459.45,464.00 460.00,464.00 C460.55,464.00 461.00,463.55 461.00,463.00 ZM 375.09 337.98 L 375.00 331.09 L 376.79 330.77 C375.21,331.29 375.03,332.22 375.09,337.98 ZM 479.62 468.11 C479.01,467.31 478.35,466.40 477.72,465.50 C476.90,464.32 475.85,462.83 474.85,461.42 C476.71,463.68 478.62,466.30 479.21,467.40 C479.33,467.63 479.47,467.87 479.62,468.11 ZM 413.26 330.46 L 415.50 330.50 L 415.51 331.18 C415.30,330.87 414.61,330.64 413.26,330.46 ZM 448.57 494.47 C453.22,500.46 463.20,513.81 484.11,542.00 C469.22,521.92 454.66,502.42 451.76,498.65 C450.61,497.15 449.50,495.70 448.57,494.47 ZM 378.39 330.48 C379.29,330.34 381.49,330.25 384.43,330.19 C381.77,330.27 379.65,330.37 378.39,330.48 ZM 538.86 330.00 L 539.02 330.00 C551.98,330.00 562.86,330.27 563.28,330.61 C562.87,330.28 551.92,330.00 538.86,330.00 Z" fill="rgba(81,88,92,1)"/>
<path d="M 478.20 377.66 C491.20,360.07 508.57,337.06 512.36,332.75 L 514.77 330.00 L 538.72 330.00 C551.89,330.00 562.94,330.28 563.28,330.62 C563.91,331.25 561.13,335.07 530.76,374.95 C531.98,372.86 533.00,370.45 533.00,369.07 C533.00,365.38 531.89,365.23 527.68,368.38 C525.93,369.68 522.86,371.04 520.85,371.40 C518.84,371.76 516.92,372.77 516.58,373.65 C516.09,374.93 515.11,375.11 511.73,374.57 C509.40,374.20 507.07,373.47 506.55,372.95 C506.03,372.43 504.79,372.00 503.80,372.00 C502.81,372.00 502.00,371.52 502.00,370.94 C502.00,370.36 501.60,370.13 501.10,370.44 C500.61,370.74 499.98,370.38 499.69,369.63 C499.03,367.91 490.53,366.91 487.10,368.15 C485.92,368.57 482.28,372.63 478.20,377.66 ZM 547.78 559.51 C543.24,553.27 537.15,545.01 529.04,534.00 C494.36,486.95 481.52,470.00 480.56,470.00 C480.02,470.00 477.58,471.91 475.14,474.25 C472.71,476.59 471.08,477.83 471.53,477.00 C472.05,476.03 471.57,476.18 470.17,477.40 C467.21,480.00 467.39,477.90 470.59,472.43 C472.92,468.46 473.01,467.94 471.50,467.36 C470.37,466.93 469.09,467.58 467.65,469.31 C466.40,470.82 464.25,472.03 462.50,472.20 C460.18,472.43 459.04,473.37 457.50,476.30 L 455.50 480.10 L 459.30 483.61 C463.55,487.53 463.54,488.71 459.24,495.21 C457.88,497.27 457.02,499.62 457.34,500.44 C457.65,501.26 457.48,502.20 456.95,502.53 C456.36,502.90 456.44,503.95 457.16,505.31 C457.52,506.00 459.91,509.35 463.51,514.28 C451.04,497.57 446.66,491.88 445.26,490.44 C444.58,489.74 444.36,489.01 444.79,488.83 C445.21,488.65 451.10,480.96 457.88,471.75 L 470.20 455.00 L 472.57 458.25 C473.88,460.04 476.19,463.30 477.72,465.50 C479.25,467.70 481.01,469.95 481.63,470.50 C482.80,471.54 499.37,493.72 529.05,534.00 C537.16,545.01 543.24,553.27 547.78,559.51 ZM 375.62 349.48 C375.36,346.42 375.14,342.16 375.10,338.87 C375.01,331.76 375.15,331.19 377.25,330.63 C378.49,330.30 387.50,330.02 397.28,330.01 C410.73,330.00 415.18,330.31 415.55,331.27 C415.77,331.85 415.88,339.94 415.82,350.42 C415.69,345.95 415.26,344.93 414.30,344.23 C413.24,343.45 411.36,343.20 409.53,343.58 C407.86,343.93 405.15,344.28 403.50,344.36 L 400.50 344.50 L 400.82 339.25 C401.12,334.31 400.98,333.94 398.37,332.95 C394.52,331.49 388.63,332.69 385.51,335.58 C384.07,336.91 381.88,338.00 380.63,338.00 C377.30,338.00 375.28,342.73 375.62,349.48 ZM 506.63 439.02 C500.25,448.30 494.24,457.61 494.60,458.23 C495.02,458.93 503.51,470.52 513.48,484.00 C523.45,497.48 533.53,511.11 535.88,514.31 L 540.15 520.11 L 543.48 518.15 L 546.81 516.18 L 549.90 520.03 C553.59,524.62 553.74,525.72 550.75,526.29 C549.51,526.53 556.04,526.79 565.25,526.86 L 582.00 527.00 L 544.99 527.00 L 540.24 520.37 C537.64,516.73 527.62,503.11 517.98,490.12 C508.34,477.13 498.95,464.39 497.10,461.81 L 493.74 457.11 L 506.63 439.02 ZM 528.12 378.40 C523.33,384.68 519.57,389.57 516.59,393.35 C518.69,390.06 520.34,386.80 520.70,384.67 C521.44,380.31 523.59,378.38 527.16,378.85 C527.41,378.88 527.75,378.72 528.12,378.40 ZM 585.00 580.00 C585.00,580.62 591.78,580.99 603.43,581.00 C603.09,581.00 602.75,581.00 602.39,581.00 L 582.00 581.00 L 582.00 554.00 C582.01,575.55 582.22,579.00 583.50,579.00 C584.33,579.00 585.00,579.45 585.00,580.00 ZM 390.63 367.20 C387.63,365.16 384.71,363.09 382.00,361.05 C381.72,360.84 381.45,360.64 381.20,360.44 L 382.84 361.65 C385.53,363.63 388.11,365.47 390.63,367.20 ZM 463.52 398.71 C463.42,398.64 463.37,398.57 463.34,398.50 C463.32,398.43 463.60,397.96 464.13,397.15 C463.74,397.88 463.53,398.42 463.52,398.71 ZM 512.79 579.75 C512.37,579.42 509.24,575.43 504.48,569.17 C509.16,575.31 512.37,579.42 512.79,579.75 C513.08,579.98 513.71,580.17 514.74,580.33 C513.71,580.17 513.08,579.98 512.79,579.75 ZM 505.77 404.86 C505.74,404.86 505.71,404.86 505.68,404.86 C505.23,404.83 504.16,404.75 502.70,404.64 C504.16,404.75 505.23,404.83 505.69,404.86 C505.72,404.86 505.74,404.86 505.77,404.86 ZM 486.68 403.27 C485.48,403.14 484.28,402.99 483.09,402.83 C484.29,402.99 485.49,403.14 486.68,403.27 Z" fill="rgba(124,131,136,1)"/>
<path d="M 493.41 403.94 C481.95,403.05 464.96,400.19 463.58,398.91 C462.22,397.65 483.89,369.30 487.10,368.15 C490.53,366.91 499.03,367.91 499.69,369.63 C499.98,370.38 500.61,370.74 501.10,370.44 C501.60,370.13 502.00,370.36 502.00,370.94 C502.00,371.52 502.81,372.00 503.80,372.00 C504.79,372.00 506.03,372.43 506.55,372.95 C507.07,373.47 509.40,374.20 511.73,374.57 C515.11,375.11 516.09,374.93 516.58,373.65 C516.92,372.77 518.84,371.76 520.85,371.40 C522.86,371.04 525.93,369.68 527.68,368.38 C531.89,365.23 533.00,365.38 533.00,369.07 C533.00,371.90 528.72,379.06 527.16,378.85 C523.59,378.38 521.44,380.31 520.70,384.67 C519.70,390.56 508.91,405.07 505.69,404.86 C504.49,404.78 498.96,404.37 493.41,403.94 ZM 408.30 378.03 C399.85,373.44 391.95,368.36 382.84,361.65 L 376.26 356.81 L 375.71 350.76 C375.04,343.33 377.09,338.00 380.63,338.00 C381.88,338.00 384.07,336.91 385.51,335.58 C388.63,332.69 394.52,331.49 398.37,332.95 C400.98,333.94 401.12,334.31 400.82,339.25 L 400.50 344.50 L 403.50 344.36 C405.15,344.28 407.86,343.93 409.53,343.58 C411.36,343.20 413.24,343.45 414.30,344.23 C415.87,345.38 416.02,347.34 415.77,363.72 L 415.50 381.94 ZM 556.18 526.71 C552.19,526.60 549.98,526.44 550.75,526.29 C553.74,525.72 553.59,524.62 549.90,520.03 L 546.81 516.18 L 543.48 518.15 L 540.15 520.11 L 535.88 514.31 C533.53,511.11 523.45,497.48 513.48,484.00 C503.51,470.52 495.02,458.93 494.60,458.23 C494.29,457.69 498.80,450.57 504.17,442.62 C500.65,447.90 497.88,452.33 497.62,453.39 C496.79,456.70 498.25,461.63 501.92,467.86 C503.93,471.30 505.51,472.67 508.64,473.71 C514.76,475.75 517.25,478.96 517.79,485.52 C518.16,489.92 518.77,491.46 520.76,493.03 C524.11,495.66 525.39,495.53 531.71,491.97 C534.67,490.30 537.50,489.19 538.00,489.50 C538.51,489.81 539.66,492.64 540.57,495.78 C543.05,504.35 543.65,505.64 550.26,516.75 L 556.18 526.71 ZM 457.49 501.42 C457.51,501.10 457.46,500.76 457.34,500.44 C457.02,499.62 457.88,497.27 459.24,495.21 C463.54,488.71 463.55,487.53 459.30,483.61 L 455.50 480.10 L 457.50 476.30 C459.04,473.37 460.18,472.43 462.50,472.20 C464.25,472.03 466.40,470.82 467.65,469.31 C469.09,467.58 470.37,466.93 471.50,467.36 C473.01,467.94 472.92,468.46 470.59,472.43 C467.39,477.90 467.21,480.00 470.17,477.40 C471.57,476.18 472.05,476.03 471.53,477.00 C471.08,477.83 472.71,476.59 475.14,474.25 C475.90,473.52 476.66,472.83 477.37,472.23 C472.11,477.67 462.12,491.72 458.22,499.78 C457.93,500.38 457.69,500.92 457.49,501.42 ZM 585.00 580.00 C585.00,579.45 584.33,579.00 583.50,579.00 C582.57,579.00 582.21,577.18 582.07,567.94 L 585.91 568.98 C589.56,569.96 601.00,578.48 601.00,580.22 C601.00,580.60 604.89,580.92 609.98,580.99 C608.20,581.00 606.19,581.00 603.89,581.00 C591.96,581.00 585.00,580.63 585.00,580.00 ZM 480.41 470.03 C480.47,470.01 480.52,470.00 480.56,470.00 C481.37,470.00 490.70,482.15 514.58,514.42 C490.48,481.85 481.83,470.66 480.41,470.03 ZM 512.79 579.75 C511.76,578.94 493.97,555.38 478.77,534.96 C493.98,555.36 511.85,579.01 512.79,579.75 ZM 457.16 505.32 C457.16,505.31 457.16,505.31 457.16,505.31 C456.44,503.95 456.36,502.90 456.95,502.53 C457.03,502.48 457.10,502.42 457.17,502.34 C456.79,503.59 456.80,504.49 457.16,505.32 ZM 517.71 423.59 C519.38,421.44 520.55,420.08 520.90,420.00 C520.58,420.38 520.27,420.71 519.99,420.95 C519.52,421.37 518.73,422.30 517.71,423.59 Z" fill="rgba(133,139,144,1)"/>
<path d="M 534.24 461.75 C535.40,462.99 537.06,463.98 537.92,463.96 C538.06,463.96 538.17,463.97 538.29,463.97 C539.77,463.92 541.18,461.71 581.41,401.40 C616.41,348.94 623.40,338.07 623.44,334.83 C623.45,336.19 622.34,338.60 619.84,342.86 C614.48,351.95 575.33,411.08 547.63,451.91 C536.28,468.64 527.00,482.93 527.00,483.68 C527.00,484.79 531.86,484.98 554.25,484.77 L 581.50 484.50 L 538.50 485.50 L 538.81 488.00 C540.08,498.41 547.81,512.47 551.13,510.42 C552.52,509.56 559.90,513.91 561.69,516.65 C562.64,518.10 563.43,521.01 563.46,523.14 L 563.50 526.99 L 582.00 527.00 L 556.35 527.00 L 550.26 516.75 C543.65,505.64 543.05,504.35 540.57,495.78 C539.66,492.64 538.51,489.81 538.00,489.50 C537.50,489.19 534.67,490.30 531.71,491.97 C525.39,495.53 524.11,495.66 520.76,493.03 C518.77,491.46 518.16,489.92 517.79,485.52 C517.25,478.96 514.76,475.75 508.64,473.71 C505.51,472.67 503.93,471.30 501.92,467.86 C498.25,461.63 496.79,456.70 497.62,453.39 C498.22,450.97 511.88,430.95 517.79,423.49 C516.96,424.57 516.02,425.84 515.07,427.19 C508.64,436.31 508.37,439.54 513.76,442.67 C521.50,447.17 530.12,454.18 531.11,456.79 C531.67,458.28 533.08,460.51 534.24,461.75 ZM 601.00 580.22 C601.00,578.48 589.56,569.96 585.91,568.98 L 582.00 567.92 L 582.00 530.81 C582.00,534.82 584.38,538.35 587.81,539.44 C588.84,539.77 590.31,541.20 591.07,542.64 C592.98,546.20 599.86,552.10 605.49,554.99 C610.10,557.36 611.69,558.95 617.44,566.92 C619.12,569.24 621.21,571.00 622.29,571.00 C623.29,571.00 623.76,570.73 623.96,567.29 C623.88,573.94 623.71,578.65 623.47,579.25 C622.88,580.77 621.34,581.00 611.89,581.00 C605.90,581.00 601.00,580.65 601.00,580.22 ZM 457.02 502.91 C457.20,502.07 457.60,501.06 458.22,499.78 C463.12,489.63 477.68,470.00 480.31,470.00 C481.01,470.00 485.29,475.24 496.16,489.68 C486.59,477.12 485.07,476.00 483.45,476.00 C482.07,476.00 479.71,476.75 478.21,477.68 C474.72,479.83 468.00,486.79 465.76,490.56 C464.80,492.18 462.24,495.72 460.07,498.43 C458.36,500.57 457.41,501.89 457.02,502.91 ZM 520.90 420.00 C521.70,419.07 522.57,417.83 523.11,416.83 C523.88,415.41 533.72,401.15 545.00,385.13 C556.28,369.12 568.75,351.40 572.72,345.76 C575.83,341.34 577.97,338.24 579.81,336.07 C577.97,338.24 575.83,341.34 572.72,345.76 C568.75,351.41 556.13,369.34 544.68,385.62 C533.23,401.90 523.37,416.29 522.77,417.61 C522.17,418.92 521.33,420.00 520.91,420.00 L 520.90 420.00 ZM 476.19 531.49 C466.27,518.16 458.04,506.94 457.32,505.64 C457.25,505.52 457.20,505.40 457.15,505.29 C457.17,505.34 457.20,505.38 457.22,505.43 C457.91,506.73 466.21,518.05 476.19,531.49 ZM 623.88 538.83 C623.84,532.89 623.84,528.69 623.88,528.25 C623.91,527.90 624.36,527.64 625.35,527.45 C624.37,527.64 623.92,527.90 623.89,528.25 C623.86,528.66 623.86,532.79 623.88,538.83 Z" fill="rgba(152,159,163,1)"/>
<path d="M 617.44 566.92 C611.69,558.95 610.10,557.36 605.49,554.99 C599.86,552.10 592.98,546.20 591.07,542.64 C590.31,541.20 588.84,539.77 587.81,539.44 C584.38,538.35 582.00,534.82 582.00,530.81 L 582.00 527.00 L 563.50 526.99 L 563.46 523.14 C563.43,521.01 562.64,518.10 561.69,516.65 C559.90,513.91 552.52,509.56 551.13,510.42 C547.81,512.47 540.08,498.41 538.81,488.00 L 538.50 485.50 L 581.50 484.50 L 569.50 485.00 C559.16,485.43 557.81,485.68 559.72,486.77 C560.94,487.47 563.19,487.95 564.72,487.85 C569.59,487.52 582.91,495.15 587.99,501.18 C592.25,506.22 597.30,511.32 606.60,519.97 C609.02,522.21 610.96,525.07 611.33,526.91 C611.98,530.16 612.87,531.56 616.90,535.59 C618.21,536.92 620.37,538.00 621.69,538.00 C623.88,538.00 624.03,537.70 623.45,534.59 C623.10,532.71 623.11,530.23 623.47,529.09 C623.59,528.73 623.71,528.43 623.89,528.18 C623.89,528.20 623.88,528.23 623.88,528.25 C623.81,528.94 623.86,538.84 623.98,550.25 C624.20,570.09 624.12,571.00 622.29,571.00 C621.21,571.00 619.12,569.24 617.44,566.92 ZM 477.11 532.72 C466.72,518.75 457.93,506.77 457.22,505.43 C456.29,503.68 456.72,502.62 460.07,498.43 C462.24,495.72 464.80,492.18 465.76,490.56 C468.00,486.79 474.72,479.83 478.21,477.68 C479.71,476.75 482.07,476.00 483.45,476.00 C486.15,476.00 488.62,479.14 529.05,534.00 C550.38,562.95 557.67,572.94 559.87,576.87 C557.55,572.83 549.59,561.95 524.72,528.14 C505.42,501.91 504.84,501.23 500.91,500.60 C495.16,499.68 488.10,503.49 479.98,511.90 C475.58,516.46 472.66,518.63 472.05,521.33 C471.47,523.86 472.93,526.85 477.11,532.72 ZM 534.24 461.75 C533.08,460.51 531.67,458.28 531.11,456.79 C530.12,454.18 521.50,447.17 513.76,442.67 C508.37,439.54 508.64,436.31 515.07,427.19 C517.86,423.24 520.48,420.00 520.91,420.00 C521.33,420.00 522.17,418.92 522.77,417.61 C522.79,417.57 522.81,417.52 522.85,417.46 C521.70,420.76 524.78,423.77 536.65,431.58 C542.89,435.68 548.00,439.45 548.00,439.95 C548.00,440.45 548.73,441.58 549.62,442.47 C550.50,443.36 551.74,443.92 552.37,443.72 C552.88,443.55 561.94,430.40 573.26,413.61 C540.98,462.02 539.66,463.93 538.29,463.97 C538.17,463.97 538.06,463.96 537.92,463.96 C537.06,463.98 535.40,462.99 534.24,461.75 ZM 624.47 527.69 C625.64,527.06 628.30,527.00 635.31,527.00 L 646.97 526.20 C645.39,526.78 641.98,527.00 635.38,527.00 L 635.31 527.00 C628.97,527.00 625.70,527.19 624.47,527.69 ZM 558.05 580.55 C555.17,580.91 549.25,581.00 537.22,581.00 C527.03,581.00 520.63,580.88 516.92,580.57 C521.24,580.81 528.87,580.98 537.28,580.98 C549.28,580.99 555.18,580.91 558.05,580.55 ZM 512.79 579.75 C512.23,579.31 506.57,571.95 499.06,562.02 C506.04,571.23 511.46,578.20 512.91,579.83 C512.86,579.80 512.82,579.78 512.79,579.75 ZM 620.16 332.52 C621.87,332.92 622.86,333.41 623.23,334.00 C623.59,334.57 623.55,335.48 622.59,337.57 C623.41,335.70 623.58,334.60 623.21,334.00 C622.85,333.41 621.86,332.92 620.16,332.52 ZM 492.98 553.96 C491.25,551.65 489.46,549.27 487.67,546.87 C488.76,548.32 489.91,549.85 491.12,551.48 C491.75,552.31 492.37,553.14 492.98,553.96 Z" fill="rgba(172,178,181,1)"/>
<path d="M 616.90 535.59 C612.87,531.56 611.98,530.16 611.33,526.91 C610.96,525.07 609.02,522.21 606.60,519.97 C597.30,511.32 592.25,506.22 587.99,501.18 C582.91,495.15 569.59,487.52 564.72,487.85 C563.19,487.95 560.94,487.47 559.72,486.77 C557.81,485.68 559.16,485.43 569.50,485.00 L 581.50 484.50 L 582.00 462.50 L 582.30 449.38 C582.46,450.19 582.67,451.05 582.91,452.00 C583.41,453.92 584.10,457.19 584.45,459.25 C584.91,461.91 585.60,463.00 586.84,463.00 C587.81,463.00 590.36,464.81 592.51,467.01 C594.67,469.22 598.10,472.18 600.13,473.59 C602.78,475.42 604.98,478.49 607.89,484.39 C610.12,488.92 612.98,493.57 614.23,494.73 C623.18,502.98 628.00,508.20 628.00,509.64 C628.00,512.59 632.97,519.93 636.04,521.52 C637.80,522.43 639.00,523.85 639.00,525.03 C639.00,526.25 639.39,526.75 640.95,526.92 C639.43,526.98 637.61,527.00 635.44,527.00 C624.86,527.00 624.09,527.13 623.47,529.09 C623.11,530.23 623.10,532.71 623.45,534.59 C624.03,537.70 623.88,538.00 621.69,538.00 C620.37,538.00 618.21,536.92 616.90,535.59 ZM 487.05 546.06 C475.27,530.43 471.15,525.31 472.05,521.33 C472.66,518.63 475.58,516.46 479.98,511.90 C488.10,503.49 495.16,499.68 500.91,500.60 C504.84,501.23 505.42,501.91 524.72,528.14 C535.63,542.97 543.28,553.39 548.64,560.75 C545.24,556.14 541.29,550.78 537.20,545.25 C519.17,520.86 517.57,519.00 514.73,519.00 C511.49,519.00 500.87,524.37 495.00,528.98 C493.08,530.49 489.92,532.52 488.00,533.48 C485.22,534.88 483.35,535.62 482.79,536.92 C482.12,538.48 483.31,540.83 487.05,546.06 ZM 549.62 442.47 C548.73,441.58 548.00,440.45 548.00,439.95 C548.00,439.45 542.89,435.68 536.65,431.58 C528.34,426.11 524.33,422.99 523.08,420.48 C525.59,422.49 532.49,426.39 542.97,431.70 C549.83,435.18 555.91,437.87 556.47,437.69 C557.72,437.30 612.51,355.38 619.32,343.74 C621.48,340.04 622.72,337.58 623.18,335.99 C622.72,337.58 621.48,340.04 619.32,343.75 C612.23,355.87 553.69,443.29 552.37,443.72 C551.74,443.92 550.50,443.36 549.62,442.47 ZM 582.43 443.40 L 582.50 440.50 L 597.00 416.63 C604.97,403.50 613.10,390.00 615.05,386.63 C615.38,386.06 615.69,385.53 615.99,385.03 C615.80,385.34 615.62,385.67 615.42,386.01 C613.69,389.03 605.46,402.73 597.13,416.46 C587.64,432.13 583.65,438.81 582.43,443.40 ZM 560.71 579.28 C560.69,579.35 560.67,579.42 560.64,579.49 C560.30,580.37 558.58,580.75 551.25,580.90 C557.31,580.75 560.01,580.34 560.71,579.28 ZM 513.25 580.18 C513.19,580.14 513.07,580.01 512.87,579.79 C513.36,580.13 514.62,580.39 516.92,580.57 C514.80,580.46 513.48,580.32 513.25,580.18 ZM 523.07 416.91 C523.12,416.81 523.17,416.72 523.22,416.62 C523.34,416.40 523.72,415.82 524.31,414.92 C523.80,415.71 523.40,416.36 523.07,416.91 Z" fill="rgba(192,196,199,1)"/>
<path d="M 639.00 525.03 C639.00,523.85 637.80,522.43 636.04,521.52 C632.97,519.93 628.00,512.59 628.00,509.64 C628.00,508.20 623.18,502.98 614.23,494.73 C612.98,493.57 610.12,488.92 607.89,484.39 C604.98,478.49 602.78,475.42 600.13,473.59 C598.10,472.18 594.67,469.22 592.51,467.01 C590.36,464.81 587.81,463.00 586.84,463.00 C585.60,463.00 584.91,461.91 584.45,459.25 C584.10,457.19 583.41,453.92 582.91,452.00 C582.24,449.37 581.82,447.48 582.07,445.28 C582.35,446.88 583.65,447.41 589.25,449.07 C597.52,451.53 603.33,454.28 606.39,457.19 C607.55,458.30 611.11,460.99 614.30,463.17 C617.49,465.36 620.64,468.35 621.30,469.82 C622.27,472.00 622.56,467.04 622.81,443.50 C622.99,427.55 622.82,406.71 622.45,397.20 C622.11,388.47 621.79,383.38 621.06,381.24 C621.70,382.95 622.03,386.68 622.34,392.71 C622.70,399.74 623.00,422.83 623.01,444.00 C623.02,465.17 623.38,483.05 623.80,483.72 C624.12,484.21 625.78,484.59 628.83,484.85 C625.56,484.85 623.49,484.99 623.65,485.25 C623.91,485.66 624.77,486.00 625.56,486.00 C628.02,486.00 636.99,493.08 638.69,496.36 C639.58,498.08 641.47,500.95 642.90,502.74 C644.33,504.53 646.30,506.00 647.28,506.00 C648.13,506.00 648.57,505.74 648.76,504.17 L 648.77 504.87 C648.96,518.31 648.69,524.66 647.90,525.62 C647.27,526.38 645.01,527.00 642.88,527.00 C639.68,527.00 639.00,526.65 639.00,525.03 ZM 501.42 565.30 C499.75,563.10 497.99,560.76 496.19,558.35 C485.31,543.81 481.73,539.37 482.79,536.92 C483.35,535.62 485.22,534.88 488.00,533.48 C489.92,532.52 493.08,530.49 495.00,528.98 C500.87,524.37 511.49,519.00 514.73,519.00 C517.57,519.00 519.17,520.86 537.20,545.25 C539.52,548.39 541.80,551.47 543.95,554.40 C537.04,545.37 531.02,538.00 530.32,538.00 C529.49,538.00 527.68,537.11 526.29,536.01 C523.35,533.70 520.33,534.08 515.00,537.42 C513.08,538.63 507.12,541.76 501.76,544.38 C496.41,547.00 491.76,549.58 491.43,550.12 C491.12,550.62 496.13,558.01 501.42,565.30 ZM 583.89 439.49 C585.97,434.94 589.99,428.24 597.13,416.46 C590.74,427.00 586.25,434.83 583.89,439.49 Z" fill="rgba(207,209,212,1)"/>
<path d="M 542.97 431.70 C529.53,424.89 522.00,420.41 522.01,419.24 C522.01,417.95 526.03,411.99 546.00,383.67 C556.72,368.45 568.75,351.39 572.72,345.75 C573.60,344.50 574.40,343.36 575.14,342.31 C574.52,343.20 573.85,344.16 573.13,345.19 C569.17,350.86 560.99,362.47 554.96,370.99 C548.93,379.51 544.00,387.42 544.00,388.55 C544.00,392.13 546.19,394.25 554.00,398.18 C555.38,398.87 557.51,400.49 558.75,401.77 C559.99,403.05 561.00,403.80 561.00,403.43 C561.00,403.06 561.67,403.32 562.50,404.00 C563.33,404.68 564.00,406.07 564.00,407.09 C564.00,408.10 565.40,410.52 567.10,412.47 C568.81,414.41 570.60,416.00 571.08,416.00 C571.47,416.00 578.64,405.60 587.41,392.53 C572.14,415.40 557.12,437.49 556.47,437.69 C555.91,437.87 549.83,435.18 542.97,431.70 ZM 507.70 573.71 C501.10,565.19 490.99,550.83 491.43,550.12 C491.76,549.58 496.41,547.00 501.76,544.38 C507.12,541.76 513.08,538.63 515.00,537.42 C520.33,534.08 523.35,533.70 526.29,536.01 C527.68,537.11 529.49,538.00 530.32,538.00 C530.95,538.00 535.97,544.06 542.05,551.93 L 538.29 552.41 C535.98,552.71 531.25,553.90 527.79,555.06 C521.27,557.26 505.49,565.41 504.42,567.13 C504.00,567.81 505.49,570.63 507.70,573.71 ZM 621.30 469.82 C620.64,468.35 617.49,465.36 614.30,463.17 C611.11,460.99 607.55,458.30 606.39,457.19 C603.33,454.28 597.52,451.53 589.25,449.07 C582.53,447.07 582.00,446.71 582.00,444.17 C582.00,442.75 585.40,436.25 591.72,425.51 C586.46,434.50 585.14,437.62 585.41,439.34 C585.65,440.91 586.02,442.36 586.23,442.56 C587.62,443.95 603.75,450.53 609.50,452.04 C613.35,453.06 617.96,453.91 619.75,453.94 L 622.68 453.99 C622.44,468.52 622.11,471.62 621.30,469.82 ZM 642.90 502.74 C641.47,500.95 639.58,498.08 638.69,496.36 C636.99,493.08 628.02,486.00 625.56,486.00 C624.77,486.00 623.91,485.66 623.65,485.25 C623.39,484.84 628.88,484.73 635.84,485.00 L 648.50 485.50 L 648.78 495.75 C649.04,505.03 648.90,506.00 647.28,506.00 C646.30,506.00 644.33,504.53 642.90,502.74 ZM 552.24 565.46 C554.62,568.71 556.91,571.90 558.91,574.79 C563.12,580.86 562.64,581.00 537.22,581.00 C532.33,581.00 528.31,580.97 525.05,580.91 L 537.22 580.77 C558.69,580.52 560.50,580.36 560.50,578.74 C560.50,577.82 556.85,571.96 552.24,565.46 ZM 605.71 402.26 C610.50,394.31 614.31,387.95 615.42,386.01 C618.54,380.58 620.13,378.53 621.06,381.25 C620.12,378.73 618.53,380.60 615.43,386.01 C614.25,388.05 610.41,394.48 605.71,402.26 ZM 619.44 343.52 C619.40,343.59 619.36,343.67 619.32,343.74 C618.07,345.87 615.20,350.38 611.35,356.31 C614.93,350.78 617.81,346.24 619.44,343.52 ZM 584.80 332.07 C587.30,331.06 590.40,331.04 595.69,331.09 C590.41,331.04 587.30,331.08 584.80,332.07 ZM 511.61 578.52 L 512.34 579.31 C512.12,579.09 511.86,578.81 511.57,578.48 C511.58,578.50 511.60,578.51 511.61,578.52 Z" fill="rgba(219,221,222,1)"/>
<path d="M 567.10 412.47 C565.40,410.52 564.00,408.10 564.00,407.09 C564.00,406.07 563.33,404.68 562.50,404.00 C561.67,403.32 561.00,403.06 561.00,403.43 C561.00,403.80 559.99,403.05 558.75,401.77 C557.51,400.49 555.38,398.87 554.00,398.18 C546.19,394.25 544.00,392.13 544.00,388.55 C544.00,387.42 548.93,379.51 554.96,370.99 C560.99,362.47 569.17,350.86 573.13,345.19 C576.47,340.41 578.65,337.23 580.60,335.13 C576.07,340.35 568.99,351.58 569.04,354.00 C569.08,355.80 571.22,358.47 576.66,363.50 C580.82,367.35 586.29,372.64 588.83,375.25 C591.36,377.86 594.01,380.00 594.71,380.00 C595.25,380.00 598.11,376.24 601.91,370.74 C588.09,391.72 571.68,416.00 571.08,416.00 C570.60,416.00 568.81,414.41 567.10,412.47 ZM 609.50 452.04 C603.75,450.53 587.62,443.95 586.23,442.56 C586.02,442.36 585.65,440.91 585.41,439.34 C585.04,437.03 587.56,432.20 598.61,413.99 C600.70,410.56 602.79,407.10 604.76,403.84 C601.45,410.05 602.53,411.50 607.51,414.89 C609.64,416.33 613.66,420.29 616.44,423.67 C619.22,427.06 621.84,429.87 622.25,429.92 C622.65,429.96 622.89,426.17 622.95,420.44 C622.98,423.61 623.00,426.77 623.00,429.75 L 623.00 454.00 L 619.75 453.94 C617.96,453.91 613.35,453.06 609.50,452.04 ZM 511.61 578.52 C507.59,574.18 503.78,568.16 504.42,567.13 C505.49,565.41 521.27,557.26 527.79,555.06 C531.25,553.90 535.98,552.71 538.29,552.41 L 542.50 551.87 L 551.50 564.42 C553.83,567.67 555.96,570.81 557.56,573.34 C556.42,572.42 555.03,572.43 551.29,572.67 C548.10,572.88 543.34,573.48 540.70,574.02 C538.06,574.56 534.43,575.00 532.63,575.00 C528.67,575.00 520.06,577.73 518.04,579.63 C517.19,580.42 518.32,580.77 524.90,580.91 L 513.94 581.04 ZM 617.32 382.87 C617.28,382.94 617.24,383.01 617.20,383.08 C616.56,384.26 614.55,387.62 612.14,391.56 C613.71,388.94 614.87,386.98 615.43,386.01 C616.13,384.77 616.76,383.72 617.32,382.87 ZM 621.11 332.77 C622.24,333.12 622.94,333.53 623.23,334.00 C623.91,335.09 622.97,337.53 619.84,342.86 C619.34,343.70 618.69,344.77 617.90,346.03 C618.42,345.17 618.93,344.33 619.42,343.50 C622.87,337.69 623.91,335.09 623.23,334.00 C622.94,333.53 622.24,333.12 621.11,332.77 ZM 622.34 392.71 C622.08,387.62 621.77,384.14 621.31,382.09 C621.79,384.05 622.08,387.54 622.34,392.71 ZM 590.11 331.14 C592.16,331.04 594.67,331.08 597.88,331.11 C594.53,331.08 592.03,331.08 590.11,331.14 Z" fill="rgba(233,234,235,1)"/>
<path d="M 518.04 579.63 C520.06,577.73 528.67,575.00 532.63,575.00 C534.43,575.00 538.06,574.56 540.70,574.02 C543.34,573.48 548.10,572.88 551.29,572.67 C556.72,572.32 557.20,572.47 559.13,575.18 C563.11,580.77 562.30,581.00 538.32,581.00 C519.84,581.00 516.79,580.79 518.04,579.63 ZM 616.44 423.67 C613.66,420.29 609.64,416.33 607.51,414.89 C601.08,410.52 601.16,409.37 608.77,397.05 C612.47,391.07 616.27,384.78 617.20,383.08 C620.58,376.98 621.64,378.97 622.34,392.75 C623.22,409.98 623.17,430.02 622.25,429.92 C621.84,429.87 619.22,427.06 616.44,423.67 ZM 588.83 375.25 C586.29,372.64 580.82,367.35 576.66,363.50 C571.22,358.47 569.08,355.80 569.04,354.00 C568.98,351.16 578.81,336.08 582.73,333.00 C584.98,331.23 586.69,331.01 597.88,331.11 C614.46,331.25 622.06,332.12 623.23,334.00 C623.91,335.09 622.87,337.69 619.42,343.50 C610.39,358.72 595.99,380.00 594.71,380.00 C594.01,380.00 591.36,377.86 588.83,375.25 Z" fill="rgba(245,245,246,1)"/>
</g>
</svg>